<?xml version="1.0" encoding="UTF-8" standalone="no"?>
<!DOCTYPE svg PUBLIC "-//W3C//DTD SVG 1.1//EN"
 "http://www.w3.org/Graphics/SVG/1.1/DTD/svg11.dtd">
<!-- Generated by graphviz version 2.43.0 (0)
 -->
<!-- Title: compat.h Pages: 1 -->
<svg width="1178pt" height="263pt"
 viewBox="0.00 0.00 1178.00 263.00" xmlns="http://www.w3.org/2000/svg" xmlns:xlink="http://www.w3.org/1999/xlink">
<g id="graph0" class="graph" transform="scale(1 1) rotate(0) translate(4 259)">
<title>compat.h</title>
<polygon fill="white" stroke="transparent" points="-4,4 -4,-259 1174,-259 1174,4 -4,4"/>
<!-- Node1 -->
<g id="node1" class="node">
<title>Node1</title>
<g id="a_node1"><a xlink:title="C99 compatibility layer.">
<polygon fill="#bfbfbf" stroke="black" points="745,-235.5 745,-254.5 807,-254.5 807,-235.5 745,-235.5"/>
<text text-anchor="middle" x="776" y="-242.5" font-family="Helvetica,sans-Serif" font-size="10.00">compat.h</text>
</a>
</g>
</g>
<!-- Node2 -->
<g id="node2" class="node">
<title>Node2</title>
<g id="a_node2"><a xlink:href="opaque__structures_8h.html" target="_top" xlink:title="Public definitions of opaque structures and memory management calls for those.">
<polygon fill="white" stroke="black" points="0,-118 0,-137 116,-137 116,-118 0,-118"/>
<text text-anchor="middle" x="58" y="-125" font-family="Helvetica,sans-Serif" font-size="10.00">opaque_structures.h</text>
</a>
</g>
</g>
<!-- Node1&#45;&gt;Node2 -->
<g id="edge1" class="edge">
<title>Node1&#45;&gt;Node2</title>
<path fill="none" stroke="midnightblue" d="M734.9,-239.22C670.88,-231.64 543.53,-215.94 436,-199 299.43,-177.48 265.77,-169.09 130,-143 120.23,-141.12 109.73,-139.04 99.85,-137.06"/>
<polygon fill="midnightblue" stroke="midnightblue" points="734.64,-242.72 744.99,-240.42 735.46,-235.77 734.64,-242.72"/>
</g>
<!-- Node3 -->
<g id="node3" class="node">
<title>Node3</title>
<g id="a_node3"><a xlink:href="structures_8h.html" target="_top" xlink:title="XMSS library specific structured types.">
<polygon fill="white" stroke="black" points="172,-56.5 172,-75.5 246,-75.5 246,-56.5 172,-56.5"/>
<text text-anchor="middle" x="209" y="-63.5" font-family="Helvetica,sans-Serif" font-size="10.00">structures.h</text>
</a>
</g>
</g>
<!-- Node1&#45;&gt;Node3 -->
<g id="edge6" class="edge">
<title>Node1&#45;&gt;Node3</title>
<path fill="none" stroke="midnightblue" d="M817.29,-237.72C903.52,-223.02 1089.47,-182.25 1023,-112 995.96,-83.42 401.69,-70.54 246.04,-67.65"/>
<polygon fill="midnightblue" stroke="midnightblue" points="816.58,-234.29 807.29,-239.38 817.73,-241.19 816.58,-234.29"/>
</g>
<!-- Node6 -->
<g id="node6" class="node">
<title>Node6</title>
<g id="a_node6"><a xlink:href="types_8h.html" target="_top" xlink:title="Enumerations, basic types and callback function specifications.">
<polygon fill="white" stroke="black" points="445.5,-179.5 445.5,-198.5 498.5,-198.5 498.5,-179.5 445.5,-179.5"/>
<text text-anchor="middle" x="472" y="-186.5" font-family="Helvetica,sans-Serif" font-size="10.00">types.h</text>
</a>
</g>
</g>
<!-- Node1&#45;&gt;Node6 -->
<g id="edge7" class="edge">
<title>Node1&#45;&gt;Node6</title>
<path fill="none" stroke="midnightblue" d="M734.87,-236.69C671.62,-225.46 552.18,-204.24 498.87,-194.77"/>
<polygon fill="midnightblue" stroke="midnightblue" points="734.44,-240.17 744.9,-238.47 735.66,-233.28 734.44,-240.17"/>
</g>
<!-- Node13 -->
<g id="node13" class="node">
<title>Node13</title>
<g id="a_node13"><a xlink:href="version_8h.html" target="_top" xlink:title="Public API for XMSS library version control.">
<polygon fill="white" stroke="black" points="1108,-179.5 1108,-198.5 1170,-198.5 1170,-179.5 1108,-179.5"/>
<text text-anchor="middle" x="1139" y="-186.5" font-family="Helvetica,sans-Serif" font-size="10.00">version.h</text>
</a>
</g>
</g>
<!-- Node1&#45;&gt;Node13 -->
<g id="edge18" class="edge">
<title>Node1&#45;&gt;Node13</title>
<path fill="none" stroke="midnightblue" d="M817.2,-238.93C877.94,-231.28 995.02,-215.89 1094,-199 1098.4,-198.25 1103.03,-197.4 1107.57,-196.52"/>
<polygon fill="midnightblue" stroke="midnightblue" points="816.72,-235.46 807.24,-240.18 817.59,-242.41 816.72,-235.46"/>
</g>
<!-- Node2&#45;&gt;Node3 -->
<g id="edge2" class="edge">
<title>Node2&#45;&gt;Node3</title>
<path fill="none" stroke="midnightblue" d="M89.01,-114.28C118.35,-102.72 161.63,-85.66 187.41,-75.51"/>
<polygon fill="midnightblue" stroke="midnightblue" points="87.66,-111.05 79.63,-117.98 90.22,-117.57 87.66,-111.05"/>
</g>
<!-- Node5 -->
<g id="node5" class="node">
<title>Node5</title>
<g id="a_node5"><a xlink:href="verification_8h.html" target="_top" xlink:title="Public API for the XMSS verification library.">
<polygon fill="white" stroke="black" points="104,-0.5 104,-19.5 184,-19.5 184,-0.5 104,-0.5"/>
<text text-anchor="middle" x="144" y="-7.5" font-family="Helvetica,sans-Serif" font-size="10.00">verification.h</text>
</a>
</g>
</g>
<!-- Node2&#45;&gt;Node5 -->
<g id="edge5" class="edge">
<title>Node2&#45;&gt;Node5</title>
<path fill="none" stroke="midnightblue" d="M70.53,-109.67C89.08,-84.76 123.2,-38.94 137.46,-19.78"/>
<polygon fill="midnightblue" stroke="midnightblue" points="67.63,-107.71 64.46,-117.82 73.24,-111.89 67.63,-107.71"/>
</g>
<!-- Node4 -->
<g id="node4" class="node">
<title>Node4</title>
<g id="a_node4"><a xlink:href="signing_8h.html" target="_top" xlink:title="Public API for the XMSS signing library.">
<polygon fill="white" stroke="black" points="606.5,-0.5 606.5,-19.5 667.5,-19.5 667.5,-0.5 606.5,-0.5"/>
<text text-anchor="middle" x="637" y="-7.5" font-family="Helvetica,sans-Serif" font-size="10.00">signing.h</text>
</a>
</g>
</g>
<!-- Node3&#45;&gt;Node4 -->
<g id="edge3" class="edge">
<title>Node3&#45;&gt;Node4</title>
<path fill="none" stroke="midnightblue" d="M256.24,-59.04C344.57,-47.89 532.47,-24.19 606.3,-14.87"/>
<polygon fill="midnightblue" stroke="midnightblue" points="255.72,-55.58 246.23,-60.3 256.59,-62.52 255.72,-55.58"/>
</g>
<!-- Node3&#45;&gt;Node5 -->
<g id="edge4" class="edge">
<title>Node3&#45;&gt;Node5</title>
<path fill="none" stroke="midnightblue" d="M190.73,-49.82C179.08,-40.15 164.4,-27.95 154.63,-19.83"/>
<polygon fill="midnightblue" stroke="midnightblue" points="188.63,-52.63 198.56,-56.32 193.1,-47.24 188.63,-52.63"/>
</g>
<!-- Node6&#45;&gt;Node2 -->
<g id="edge10" class="edge">
<title>Node6&#45;&gt;Node2</title>
<path fill="none" stroke="midnightblue" d="M435.11,-183.98C372.28,-176.94 240.57,-161.39 130,-143 119.56,-141.26 108.32,-139.13 97.9,-137.04"/>
<polygon fill="midnightblue" stroke="midnightblue" points="434.98,-187.48 445.3,-185.11 435.75,-180.53 434.98,-187.48"/>
</g>
<!-- Node6&#45;&gt;Node3 -->
<g id="edge16" class="edge">
<title>Node6&#45;&gt;Node3</title>
<path fill="none" stroke="midnightblue" d="M434.94,-187.51C367.87,-185.75 230.57,-177.88 201,-143 184.7,-123.77 197,-91.22 204.43,-75.72"/>
<polygon fill="midnightblue" stroke="midnightblue" points="434.99,-191.01 445.07,-187.74 435.15,-184.01 434.99,-191.01"/>
</g>
<!-- Node6&#45;&gt;Node4 -->
<g id="edge15" class="edge">
<title>Node6&#45;&gt;Node4</title>
<path fill="none" stroke="midnightblue" d="M509.11,-187.81C627.14,-186.82 988.23,-180.73 1023,-143 1127.4,-29.73 775.77,-13.65 667.65,-11.37"/>
<polygon fill="midnightblue" stroke="midnightblue" points="508.75,-184.31 498.78,-187.89 508.81,-191.31 508.75,-184.31"/>
</g>
<!-- Node6&#45;&gt;Node5 -->
<g id="edge17" class="edge">
<title>Node6&#45;&gt;Node5</title>
<path fill="none" stroke="midnightblue" d="M435.15,-183.13C360.68,-173.15 198.52,-150.69 189,-143 149.81,-111.37 144.6,-44 144.02,-19.85"/>
<polygon fill="midnightblue" stroke="midnightblue" points="435.09,-186.65 445.47,-184.51 436.02,-179.72 435.09,-186.65"/>
</g>
<!-- Node7 -->
<g id="node7" class="node">
<title>Node7</title>
<g id="a_node7"><a xlink:href="errors_8h.html" target="_top" xlink:title="Public API for XMSS error handling.">
<polygon fill="white" stroke="black" points="210,-118 210,-137 264,-137 264,-118 210,-118"/>
<text text-anchor="middle" x="237" y="-125" font-family="Helvetica,sans-Serif" font-size="10.00">errors.h</text>
</a>
</g>
</g>
<!-- Node6&#45;&gt;Node7 -->
<g id="edge8" class="edge">
<title>Node6&#45;&gt;Node7</title>
<path fill="none" stroke="midnightblue" d="M435.34,-181.54C395.06,-174.02 328.68,-160.38 273,-143 267.6,-141.31 261.86,-139.17 256.6,-137.06"/>
<polygon fill="midnightblue" stroke="midnightblue" points="434.78,-185 445.25,-183.36 436.05,-178.11 434.78,-185"/>
</g>
<!-- Node8 -->
<g id="node8" class="node">
<title>Node8</title>
<g id="a_node8"><a xlink:href="generic__digest_8h.html" target="_top" xlink:title="Abstract typedefs for hash function overrides using the generic interface.">
<polygon fill="white" stroke="black" points="282.5,-118 282.5,-137 379.5,-137 379.5,-118 282.5,-118"/>
<text text-anchor="middle" x="331" y="-125" font-family="Helvetica,sans-Serif" font-size="10.00">generic_digest.h</text>
</a>
</g>
</g>
<!-- Node6&#45;&gt;Node8 -->
<g id="edge9" class="edge">
<title>Node6&#45;&gt;Node8</title>
<path fill="none" stroke="midnightblue" d="M442.33,-175.48C414.95,-163.92 375.02,-147.08 351.16,-137.01"/>
<polygon fill="midnightblue" stroke="midnightblue" points="441.22,-178.81 451.8,-179.48 443.95,-172.36 441.22,-178.81"/>
</g>
<!-- Node9 -->
<g id="node9" class="node">
<title>Node9</title>
<g id="a_node9"><a xlink:href="override__sha256__generic_8h.html" target="_top" xlink:title="Prototypes for the SHA&#45;256 hash function override using the generic interface.">
<polygon fill="white" stroke="black" points="398,-118 398,-137 546,-137 546,-118 398,-118"/>
<text text-anchor="middle" x="472" y="-125" font-family="Helvetica,sans-Serif" font-size="10.00">override_sha256_generic.h</text>
</a>
</g>
</g>
<!-- Node6&#45;&gt;Node9 -->
<g id="edge11" class="edge">
<title>Node6&#45;&gt;Node9</title>
<path fill="none" stroke="midnightblue" d="M472,-169.32C472,-158.5 472,-145.4 472,-137.01"/>
<polygon fill="midnightblue" stroke="midnightblue" points="468.5,-169.48 472,-179.48 475.5,-169.48 468.5,-169.48"/>
</g>
<!-- Node10 -->
<g id="node10" class="node">
<title>Node10</title>
<g id="a_node10"><a xlink:href="override__sha256__internal_8h.html" target="_top" xlink:title="Prototype for the SHA&#45;256 hash function override using the internal interface.">
<polygon fill="white" stroke="black" points="564.5,-118 564.5,-137 713.5,-137 713.5,-118 564.5,-118"/>
<text text-anchor="middle" x="639" y="-125" font-family="Helvetica,sans-Serif" font-size="10.00">override_sha256_internal.h</text>
</a>
</g>
</g>
<!-- Node6&#45;&gt;Node10 -->
<g id="edge12" class="edge">
<title>Node6&#45;&gt;Node10</title>
<path fill="none" stroke="midnightblue" d="M505.45,-176.08C537.91,-164.52 586.37,-147.25 615.12,-137.01"/>
<polygon fill="midnightblue" stroke="midnightblue" points="504.17,-172.82 495.93,-179.48 506.52,-179.42 504.17,-172.82"/>
</g>
<!-- Node11 -->
<g id="node11" class="node">
<title>Node11</title>
<g id="a_node11"><a xlink:href="override__shake256__256__generic_8h.html" target="_top" xlink:title="Prototypes for the SHAKE256/256 hash function override using the generic interface.">
<polygon fill="white" stroke="black" points="732,-112.5 732,-142.5 864,-142.5 864,-112.5 732,-112.5"/>
<text text-anchor="start" x="740" y="-130.5" font-family="Helvetica,sans-Serif" font-size="10.00">override_shake256_256</text>
<text text-anchor="middle" x="798" y="-119.5" font-family="Helvetica,sans-Serif" font-size="10.00">_generic.h</text>
</a>
</g>
</g>
<!-- Node6&#45;&gt;Node11 -->
<g id="edge13" class="edge">
<title>Node6&#45;&gt;Node11</title>
<path fill="none" stroke="midnightblue" d="M508.72,-181.51C557.48,-172.87 646.26,-157.04 722,-143 725.17,-142.41 728.41,-141.81 731.69,-141.19"/>
<polygon fill="midnightblue" stroke="midnightblue" points="507.89,-178.11 498.66,-183.3 509.11,-185 507.89,-178.11"/>
</g>
<!-- Node12 -->
<g id="node12" class="node">
<title>Node12</title>
<g id="a_node12"><a xlink:href="override__shake256__256__internal_8h.html" target="_top" xlink:title="Prototypes for the SHAKE256/256 hash function override using the internal interface.">
<polygon fill="white" stroke="black" points="882,-112.5 882,-142.5 1014,-142.5 1014,-112.5 882,-112.5"/>
<text text-anchor="start" x="890" y="-130.5" font-family="Helvetica,sans-Serif" font-size="10.00">override_shake256_256</text>
<text text-anchor="middle" x="948" y="-119.5" font-family="Helvetica,sans-Serif" font-size="10.00">_internal.h</text>
</a>
</g>
</g>
<!-- Node6&#45;&gt;Node12 -->
<g id="edge14" class="edge">
<title>Node6&#45;&gt;Node12</title>
<path fill="none" stroke="midnightblue" d="M509.05,-184.83C579.94,-178.55 739.61,-163.35 873,-143 875.88,-142.56 878.83,-142.09 881.8,-141.59"/>
<polygon fill="midnightblue" stroke="midnightblue" points="508.5,-181.37 498.85,-185.73 509.11,-188.34 508.5,-181.37"/>
</g>
</g>
</svg>
