<?xml version="1.0" encoding="UTF-8" standalone="no"?>
<!DOCTYPE svg PUBLIC "-//W3C//DTD SVG 1.1//EN"
 "http://www.w3.org/Graphics/SVG/1.1/DTD/svg11.dtd">
<!-- Generated by graphviz version 2.43.0 (0)
 -->
<!-- Title: opaque_structures.h Pages: 1 -->
<svg width="168pt" height="140pt"
 viewBox="0.00 0.00 167.50 140.00" xmlns="http://www.w3.org/2000/svg" xmlns:xlink="http://www.w3.org/1999/xlink">
<g id="graph0" class="graph" transform="scale(1 1) rotate(0) translate(4 136)">
<title>opaque_structures.h</title>
<polygon fill="white" stroke="transparent" points="-4,4 -4,-136 163.5,-136 163.5,4 -4,4"/>
<!-- Node1 -->
<g id="node1" class="node">
<title>Node1</title>
<g id="a_node1"><a xlink:title="Public definitions of opaque structures and memory management calls for those.">
<polygon fill="#bfbfbf" stroke="black" points="28.5,-112.5 28.5,-131.5 144.5,-131.5 144.5,-112.5 28.5,-112.5"/>
<text text-anchor="middle" x="86.5" y="-119.5" font-family="Helvetica,sans-Serif" font-size="10.00">opaque_structures.h</text>
</a>
</g>
</g>
<!-- Node2 -->
<g id="node2" class="node">
<title>Node2</title>
<g id="a_node2"><a xlink:href="structures_8h.html" target="_top" xlink:title="XMSS library specific structured types.">
<polygon fill="white" stroke="black" points="17.5,-56.5 17.5,-75.5 91.5,-75.5 91.5,-56.5 17.5,-56.5"/>
<text text-anchor="middle" x="54.5" y="-63.5" font-family="Helvetica,sans-Serif" font-size="10.00">structures.h</text>
</a>
</g>
</g>
<!-- Node1&#45;&gt;Node2 -->
<g id="edge1" class="edge">
<title>Node1&#45;&gt;Node2</title>
<path fill="none" stroke="midnightblue" d="M76,-103.27C70.53,-94.05 64.08,-83.17 59.69,-75.75"/>
<polygon fill="midnightblue" stroke="midnightblue" points="73.11,-105.26 81.22,-112.08 79.13,-101.7 73.11,-105.26"/>
</g>
<!-- Node4 -->
<g id="node4" class="node">
<title>Node4</title>
<g id="a_node4"><a xlink:href="verification_8h.html" target="_top" xlink:title="Public API for the XMSS verification library.">
<polygon fill="white" stroke="black" points="79.5,-0.5 79.5,-19.5 159.5,-19.5 159.5,-0.5 79.5,-0.5"/>
<text text-anchor="middle" x="119.5" y="-7.5" font-family="Helvetica,sans-Serif" font-size="10.00">verification.h</text>
</a>
</g>
</g>
<!-- Node1&#45;&gt;Node4 -->
<g id="edge4" class="edge">
<title>Node1&#45;&gt;Node4</title>
<path fill="none" stroke="midnightblue" d="M92.25,-102.77C94.81,-94.59 97.84,-84.82 100.5,-76 106.54,-55.96 113.37,-32.37 116.97,-19.85"/>
<polygon fill="midnightblue" stroke="midnightblue" points="88.89,-101.8 89.23,-112.39 95.56,-103.9 88.89,-101.8"/>
</g>
<!-- Node3 -->
<g id="node3" class="node">
<title>Node3</title>
<g id="a_node3"><a xlink:href="signing_8h.html" target="_top" xlink:title="Public API for the XMSS signing library.">
<polygon fill="white" stroke="black" points="0,-0.5 0,-19.5 61,-19.5 61,-0.5 0,-0.5"/>
<text text-anchor="middle" x="30.5" y="-7.5" font-family="Helvetica,sans-Serif" font-size="10.00">signing.h</text>
</a>
</g>
</g>
<!-- Node2&#45;&gt;Node3 -->
<g id="edge2" class="edge">
<title>Node2&#45;&gt;Node3</title>
<path fill="none" stroke="midnightblue" d="M46.36,-46.69C42.32,-37.59 37.62,-27.01 34.39,-19.75"/>
<polygon fill="midnightblue" stroke="midnightblue" points="43.28,-48.37 50.54,-56.08 49.67,-45.52 43.28,-48.37"/>
</g>
<!-- Node2&#45;&gt;Node4 -->
<g id="edge3" class="edge">
<title>Node2&#45;&gt;Node4</title>
<path fill="none" stroke="midnightblue" d="M72.77,-49.82C84.42,-40.15 99.1,-27.95 108.87,-19.83"/>
<polygon fill="midnightblue" stroke="midnightblue" points="70.4,-47.24 64.94,-56.32 74.87,-52.63 70.4,-47.24"/>
</g>
</g>
</svg>
