<?xml version="1.0" encoding="UTF-8" standalone="no"?>
<!DOCTYPE svg PUBLIC "-//W3C//DTD SVG 1.1//EN"
 "http://www.w3.org/Graphics/SVG/1.1/DTD/svg11.dtd">
<!-- Generated by graphviz version 2.43.0 (0)
 -->
<!-- Title: override_shake256_256_generic.h Pages: 1 -->
<svg width="216pt" height="207pt"
 viewBox="0.00 0.00 215.50 207.00" xmlns="http://www.w3.org/2000/svg" xmlns:xlink="http://www.w3.org/1999/xlink">
<g id="graph0" class="graph" transform="scale(1 1) rotate(0) translate(4 203)">
<title>override_shake256_256_generic.h</title>
<polygon fill="white" stroke="transparent" points="-4,4 -4,-203 211.5,-203 211.5,4 -4,4"/>
<!-- Node1 -->
<g id="node1" class="node">
<title>Node1</title>
<g id="a_node1"><a xlink:title="Prototypes for the SHAKE256/256 hash function override using the generic interface.">
<polygon fill="#bfbfbf" stroke="black" points="39,-168.5 39,-198.5 171,-198.5 171,-168.5 39,-168.5"/>
<text text-anchor="start" x="47" y="-186.5" font-family="Helvetica,sans-Serif" font-size="10.00">override_shake256_256</text>
<text text-anchor="middle" x="105" y="-175.5" font-family="Helvetica,sans-Serif" font-size="10.00">_generic.h</text>
</a>
</g>
</g>
<!-- Node2 -->
<g id="node2" class="node">
<title>Node2</title>
<g id="a_node2"><a xlink:title=" ">
<polygon fill="white" stroke="#bfbfbf" points="0,-56.5 0,-75.5 56,-75.5 56,-56.5 0,-56.5"/>
<text text-anchor="middle" x="28" y="-63.5" font-family="Helvetica,sans-Serif" font-size="10.00">stddef.h</text>
</a>
</g>
</g>
<!-- Node1&#45;&gt;Node2 -->
<g id="edge1" class="edge">
<title>Node1&#45;&gt;Node2</title>
<path fill="none" stroke="midnightblue" d="M94.38,-168.07C87.09,-158.05 77.28,-144.34 69,-132 58.23,-115.95 46.52,-97.26 38.39,-84.05"/>
<polygon fill="midnightblue" stroke="midnightblue" points="41.37,-82.21 33.16,-75.51 35.4,-85.87 41.37,-82.21"/>
</g>
<!-- Node3 -->
<g id="node3" class="node">
<title>Node3</title>
<g id="a_node3"><a xlink:title=" ">
<polygon fill="white" stroke="#bfbfbf" points="154.5,-56.5 154.5,-75.5 207.5,-75.5 207.5,-56.5 154.5,-56.5"/>
<text text-anchor="middle" x="181" y="-63.5" font-family="Helvetica,sans-Serif" font-size="10.00">stdint.h</text>
</a>
</g>
</g>
<!-- Node1&#45;&gt;Node3 -->
<g id="edge2" class="edge">
<title>Node1&#45;&gt;Node3</title>
<path fill="none" stroke="midnightblue" d="M114.97,-168.46C122.07,-158.39 131.76,-144.46 140,-132 150.54,-116.06 162.12,-97.61 170.28,-84.45"/>
<polygon fill="midnightblue" stroke="midnightblue" points="173.28,-86.26 175.55,-75.91 167.32,-82.58 173.28,-86.26"/>
</g>
<!-- Node4 -->
<g id="node4" class="node">
<title>Node4</title>
<g id="a_node4"><a xlink:href="types_8h.html" target="_top" xlink:title="Enumerations, basic types and callback function specifications.">
<polygon fill="white" stroke="black" points="78.5,-112.5 78.5,-131.5 131.5,-131.5 131.5,-112.5 78.5,-112.5"/>
<text text-anchor="middle" x="105" y="-119.5" font-family="Helvetica,sans-Serif" font-size="10.00">types.h</text>
</a>
</g>
</g>
<!-- Node1&#45;&gt;Node4 -->
<g id="edge3" class="edge">
<title>Node1&#45;&gt;Node4</title>
<path fill="none" stroke="midnightblue" d="M105,-168.4C105,-160.47 105,-150.46 105,-141.86"/>
<polygon fill="midnightblue" stroke="midnightblue" points="108.5,-141.66 105,-131.66 101.5,-141.66 108.5,-141.66"/>
</g>
<!-- Node4&#45;&gt;Node2 -->
<g id="edge4" class="edge">
<title>Node4&#45;&gt;Node2</title>
<path fill="none" stroke="midnightblue" d="M92.63,-112.32C80.84,-104.06 62.87,-91.45 48.86,-81.63"/>
<polygon fill="midnightblue" stroke="midnightblue" points="50.54,-78.53 40.34,-75.65 46.52,-84.26 50.54,-78.53"/>
</g>
<!-- Node4&#45;&gt;Node3 -->
<g id="edge5" class="edge">
<title>Node4&#45;&gt;Node3</title>
<path fill="none" stroke="midnightblue" d="M117.21,-112.32C128.78,-104.11 146.38,-91.6 160.16,-81.81"/>
<polygon fill="midnightblue" stroke="midnightblue" points="162.44,-84.48 168.57,-75.83 158.39,-78.77 162.44,-84.48"/>
</g>
<!-- Node5 -->
<g id="node5" class="node">
<title>Node5</title>
<g id="a_node5"><a xlink:href="compat_8h.html" target="_top" xlink:title="C99 compatibility layer.">
<polygon fill="white" stroke="black" points="74,-56.5 74,-75.5 136,-75.5 136,-56.5 74,-56.5"/>
<text text-anchor="middle" x="105" y="-63.5" font-family="Helvetica,sans-Serif" font-size="10.00">compat.h</text>
</a>
</g>
</g>
<!-- Node4&#45;&gt;Node5 -->
<g id="edge6" class="edge">
<title>Node4&#45;&gt;Node5</title>
<path fill="none" stroke="midnightblue" d="M105,-112.08C105,-105.01 105,-94.86 105,-85.99"/>
<polygon fill="midnightblue" stroke="midnightblue" points="108.5,-85.75 105,-75.75 101.5,-85.75 108.5,-85.75"/>
</g>
<!-- Node6 -->
<g id="node6" class="node">
<title>Node6</title>
<g id="a_node6"><a xlink:href="xmss__config_8h.html" target="_top" xlink:title="The configurable CMake options that affect the public API.">
<polygon fill="white" stroke="black" points="62,-0.5 62,-19.5 148,-19.5 148,-0.5 62,-0.5"/>
<text text-anchor="middle" x="105" y="-7.5" font-family="Helvetica,sans-Serif" font-size="10.00">xmss_config.h</text>
</a>
</g>
</g>
<!-- Node5&#45;&gt;Node6 -->
<g id="edge7" class="edge">
<title>Node5&#45;&gt;Node6</title>
<path fill="none" stroke="midnightblue" d="M105,-56.08C105,-49.01 105,-38.86 105,-29.99"/>
<polygon fill="midnightblue" stroke="midnightblue" points="108.5,-29.75 105,-19.75 101.5,-29.75 108.5,-29.75"/>
</g>
</g>
</svg>
