<?xml version="1.0" encoding="UTF-8" standalone="no"?>
<!DOCTYPE svg PUBLIC "-//W3C//DTD SVG 1.1//EN"
 "http://www.w3.org/Graphics/SVG/1.1/DTD/svg11.dtd">
<!-- Generated by graphviz version 2.43.0 (0)
 -->
<!-- Title: override_shake256_256_internal.h Pages: 1 -->
<svg width="231pt" height="207pt"
 viewBox="0.00 0.00 231.00 207.00" xmlns="http://www.w3.org/2000/svg" xmlns:xlink="http://www.w3.org/1999/xlink">
<g id="graph0" class="graph" transform="scale(1 1) rotate(0) translate(4 203)">
<title>override_shake256_256_internal.h</title>
<polygon fill="white" stroke="transparent" points="-4,4 -4,-203 227,-203 227,4 -4,4"/>
<!-- Node1 -->
<g id="node1" class="node">
<title>Node1</title>
<g id="a_node1"><a xlink:title="Prototypes for the SHAKE256/256 hash function override using the internal interface.">
<polygon fill="#bfbfbf" stroke="black" points="0,-168.5 0,-198.5 132,-198.5 132,-168.5 0,-168.5"/>
<text text-anchor="start" x="8" y="-186.5" font-family="Helvetica,sans-Serif" font-size="10.00">override_shake256_256</text>
<text text-anchor="middle" x="66" y="-175.5" font-family="Helvetica,sans-Serif" font-size="10.00">_internal.h</text>
</a>
</g>
</g>
<!-- Node2 -->
<g id="node2" class="node">
<title>Node2</title>
<g id="a_node2"><a xlink:title=" ">
<polygon fill="white" stroke="#bfbfbf" points="3.5,-56.5 3.5,-75.5 56.5,-75.5 56.5,-56.5 3.5,-56.5"/>
<text text-anchor="middle" x="30" y="-63.5" font-family="Helvetica,sans-Serif" font-size="10.00">stdint.h</text>
</a>
</g>
</g>
<!-- Node1&#45;&gt;Node2 -->
<g id="edge1" class="edge">
<title>Node1&#45;&gt;Node2</title>
<path fill="none" stroke="midnightblue" d="M61.59,-168.34C55.07,-147.43 42.88,-108.31 35.69,-85.27"/>
<polygon fill="midnightblue" stroke="midnightblue" points="39.02,-84.17 32.7,-75.67 32.34,-86.26 39.02,-84.17"/>
</g>
<!-- Node3 -->
<g id="node3" class="node">
<title>Node3</title>
<g id="a_node3"><a xlink:href="types_8h.html" target="_top" xlink:title="Enumerations, basic types and callback function specifications.">
<polygon fill="white" stroke="black" points="71.5,-112.5 71.5,-131.5 124.5,-131.5 124.5,-112.5 71.5,-112.5"/>
<text text-anchor="middle" x="98" y="-119.5" font-family="Helvetica,sans-Serif" font-size="10.00">types.h</text>
</a>
</g>
</g>
<!-- Node1&#45;&gt;Node3 -->
<g id="edge2" class="edge">
<title>Node1&#45;&gt;Node3</title>
<path fill="none" stroke="midnightblue" d="M73.58,-168.4C78.04,-160.11 83.72,-149.55 88.48,-140.71"/>
<polygon fill="midnightblue" stroke="midnightblue" points="91.69,-142.12 93.34,-131.66 85.52,-138.81 91.69,-142.12"/>
</g>
<!-- Node3&#45;&gt;Node2 -->
<g id="edge4" class="edge">
<title>Node3&#45;&gt;Node2</title>
<path fill="none" stroke="midnightblue" d="M87.07,-112.32C76.83,-104.18 61.28,-91.84 49,-82.09"/>
<polygon fill="midnightblue" stroke="midnightblue" points="51.13,-79.31 41.12,-75.83 46.78,-84.79 51.13,-79.31"/>
</g>
<!-- Node4 -->
<g id="node4" class="node">
<title>Node4</title>
<g id="a_node4"><a xlink:title=" ">
<polygon fill="white" stroke="#bfbfbf" points="75,-56.5 75,-75.5 131,-75.5 131,-56.5 75,-56.5"/>
<text text-anchor="middle" x="103" y="-63.5" font-family="Helvetica,sans-Serif" font-size="10.00">stddef.h</text>
</a>
</g>
</g>
<!-- Node3&#45;&gt;Node4 -->
<g id="edge3" class="edge">
<title>Node3&#45;&gt;Node4</title>
<path fill="none" stroke="midnightblue" d="M98.83,-112.08C99.48,-105.01 100.42,-94.86 101.24,-85.99"/>
<polygon fill="midnightblue" stroke="midnightblue" points="104.75,-86.03 102.19,-75.75 97.78,-85.39 104.75,-86.03"/>
</g>
<!-- Node5 -->
<g id="node5" class="node">
<title>Node5</title>
<g id="a_node5"><a xlink:href="compat_8h.html" target="_top" xlink:title="C99 compatibility layer.">
<polygon fill="white" stroke="black" points="149,-56.5 149,-75.5 211,-75.5 211,-56.5 149,-56.5"/>
<text text-anchor="middle" x="180" y="-63.5" font-family="Helvetica,sans-Serif" font-size="10.00">compat.h</text>
</a>
</g>
</g>
<!-- Node3&#45;&gt;Node5 -->
<g id="edge5" class="edge">
<title>Node3&#45;&gt;Node5</title>
<path fill="none" stroke="midnightblue" d="M111.17,-112.32C123.85,-103.98 143.23,-91.21 158.21,-81.35"/>
<polygon fill="midnightblue" stroke="midnightblue" points="160.43,-84.08 166.86,-75.65 156.58,-78.23 160.43,-84.08"/>
</g>
<!-- Node6 -->
<g id="node6" class="node">
<title>Node6</title>
<g id="a_node6"><a xlink:href="xmss__config_8h.html" target="_top" xlink:title="The configurable CMake options that affect the public API.">
<polygon fill="white" stroke="black" points="137,-0.5 137,-19.5 223,-19.5 223,-0.5 137,-0.5"/>
<text text-anchor="middle" x="180" y="-7.5" font-family="Helvetica,sans-Serif" font-size="10.00">xmss_config.h</text>
</a>
</g>
</g>
<!-- Node5&#45;&gt;Node6 -->
<g id="edge6" class="edge">
<title>Node5&#45;&gt;Node6</title>
<path fill="none" stroke="midnightblue" d="M180,-56.08C180,-49.01 180,-38.86 180,-29.99"/>
<polygon fill="midnightblue" stroke="midnightblue" points="183.5,-29.75 180,-19.75 176.5,-29.75 183.5,-29.75"/>
</g>
</g>
</svg>
