<?xml version="1.0" encoding="UTF-8" standalone="no"?>
<!DOCTYPE svg PUBLIC "-//W3C//DTD SVG 1.1//EN"
 "http://www.w3.org/Graphics/SVG/1.1/DTD/svg11.dtd">
<!-- Generated by graphviz version 2.43.0 (0)
 -->
<!-- Title: override_sha256_internal.h Pages: 1 -->
<svg width="240pt" height="196pt"
 viewBox="0.00 0.00 239.50 196.00" xmlns="http://www.w3.org/2000/svg" xmlns:xlink="http://www.w3.org/1999/xlink">
<g id="graph0" class="graph" transform="scale(1 1) rotate(0) translate(4 192)">
<title>override_sha256_internal.h</title>
<polygon fill="white" stroke="transparent" points="-4,4 -4,-192 235.5,-192 235.5,4 -4,4"/>
<!-- Node1 -->
<g id="node1" class="node">
<title>Node1</title>
<g id="a_node1"><a xlink:title="Prototype for the SHA&#45;256 hash function override using the internal interface.">
<polygon fill="#bfbfbf" stroke="black" points="0,-168.5 0,-187.5 149,-187.5 149,-168.5 0,-168.5"/>
<text text-anchor="middle" x="74.5" y="-175.5" font-family="Helvetica,sans-Serif" font-size="10.00">override_sha256_internal.h</text>
</a>
</g>
</g>
<!-- Node2 -->
<g id="node2" class="node">
<title>Node2</title>
<g id="a_node2"><a xlink:title=" ">
<polygon fill="white" stroke="#bfbfbf" points="12,-56.5 12,-75.5 65,-75.5 65,-56.5 12,-56.5"/>
<text text-anchor="middle" x="38.5" y="-63.5" font-family="Helvetica,sans-Serif" font-size="10.00">stdint.h</text>
</a>
</g>
</g>
<!-- Node1&#45;&gt;Node2 -->
<g id="edge1" class="edge">
<title>Node1&#45;&gt;Node2</title>
<path fill="none" stroke="midnightblue" d="M71.68,-168.37C65.84,-150.54 52.34,-109.3 44.48,-85.27"/>
<polygon fill="midnightblue" stroke="midnightblue" points="47.75,-84.01 41.31,-75.59 41.1,-86.18 47.75,-84.01"/>
</g>
<!-- Node3 -->
<g id="node3" class="node">
<title>Node3</title>
<g id="a_node3"><a xlink:href="types_8h.html" target="_top" xlink:title="Enumerations, basic types and callback function specifications.">
<polygon fill="white" stroke="black" points="80,-112.5 80,-131.5 133,-131.5 133,-112.5 80,-112.5"/>
<text text-anchor="middle" x="106.5" y="-119.5" font-family="Helvetica,sans-Serif" font-size="10.00">types.h</text>
</a>
</g>
</g>
<!-- Node1&#45;&gt;Node3 -->
<g id="edge2" class="edge">
<title>Node1&#45;&gt;Node3</title>
<path fill="none" stroke="midnightblue" d="M79.78,-168.08C84.21,-160.61 90.66,-149.72 96.12,-140.52"/>
<polygon fill="midnightblue" stroke="midnightblue" points="99.23,-142.14 101.31,-131.75 93.21,-138.57 99.23,-142.14"/>
</g>
<!-- Node3&#45;&gt;Node2 -->
<g id="edge4" class="edge">
<title>Node3&#45;&gt;Node2</title>
<path fill="none" stroke="midnightblue" d="M95.57,-112.32C85.33,-104.18 69.78,-91.84 57.5,-82.09"/>
<polygon fill="midnightblue" stroke="midnightblue" points="59.63,-79.31 49.62,-75.83 55.28,-84.79 59.63,-79.31"/>
</g>
<!-- Node4 -->
<g id="node4" class="node">
<title>Node4</title>
<g id="a_node4"><a xlink:title=" ">
<polygon fill="white" stroke="#bfbfbf" points="83.5,-56.5 83.5,-75.5 139.5,-75.5 139.5,-56.5 83.5,-56.5"/>
<text text-anchor="middle" x="111.5" y="-63.5" font-family="Helvetica,sans-Serif" font-size="10.00">stddef.h</text>
</a>
</g>
</g>
<!-- Node3&#45;&gt;Node4 -->
<g id="edge3" class="edge">
<title>Node3&#45;&gt;Node4</title>
<path fill="none" stroke="midnightblue" d="M107.33,-112.08C107.98,-105.01 108.92,-94.86 109.74,-85.99"/>
<polygon fill="midnightblue" stroke="midnightblue" points="113.25,-86.03 110.69,-75.75 106.28,-85.39 113.25,-86.03"/>
</g>
<!-- Node5 -->
<g id="node5" class="node">
<title>Node5</title>
<g id="a_node5"><a xlink:href="compat_8h.html" target="_top" xlink:title="C99 compatibility layer.">
<polygon fill="white" stroke="black" points="157.5,-56.5 157.5,-75.5 219.5,-75.5 219.5,-56.5 157.5,-56.5"/>
<text text-anchor="middle" x="188.5" y="-63.5" font-family="Helvetica,sans-Serif" font-size="10.00">compat.h</text>
</a>
</g>
</g>
<!-- Node3&#45;&gt;Node5 -->
<g id="edge5" class="edge">
<title>Node3&#45;&gt;Node5</title>
<path fill="none" stroke="midnightblue" d="M119.67,-112.32C132.35,-103.98 151.73,-91.21 166.71,-81.35"/>
<polygon fill="midnightblue" stroke="midnightblue" points="168.93,-84.08 175.36,-75.65 165.08,-78.23 168.93,-84.08"/>
</g>
<!-- Node6 -->
<g id="node6" class="node">
<title>Node6</title>
<g id="a_node6"><a xlink:href="xmss__config_8h.html" target="_top" xlink:title="The configurable CMake options that affect the public API.">
<polygon fill="white" stroke="black" points="145.5,-0.5 145.5,-19.5 231.5,-19.5 231.5,-0.5 145.5,-0.5"/>
<text text-anchor="middle" x="188.5" y="-7.5" font-family="Helvetica,sans-Serif" font-size="10.00">xmss_config.h</text>
</a>
</g>
</g>
<!-- Node5&#45;&gt;Node6 -->
<g id="edge6" class="edge">
<title>Node5&#45;&gt;Node6</title>
<path fill="none" stroke="midnightblue" d="M188.5,-56.08C188.5,-49.01 188.5,-38.86 188.5,-29.99"/>
<polygon fill="midnightblue" stroke="midnightblue" points="192,-29.75 188.5,-19.75 185,-29.75 192,-29.75"/>
</g>
</g>
</svg>
