<?xml version="1.0" encoding="UTF-8" standalone="no"?>
<!DOCTYPE svg PUBLIC "-//W3C//DTD SVG 1.1//EN"
 "http://www.w3.org/Graphics/SVG/1.1/DTD/svg11.dtd">
<!-- Generated by graphviz version 2.43.0 (0)
 -->
<!-- Title: XmssSignature Pages: 1 -->
<svg width="154pt" height="117pt"
 viewBox="0.00 0.00 154.00 117.00" xmlns="http://www.w3.org/2000/svg" xmlns:xlink="http://www.w3.org/1999/xlink">
<g id="graph0" class="graph" transform="scale(1 1) rotate(0) translate(4 113)">
<title>XmssSignature</title>
<polygon fill="white" stroke="transparent" points="-4,4 -4,-113 150,-113 150,4 -4,4"/>
<!-- Node1 -->
<g id="node1" class="node">
<title>Node1</title>
<g id="a_node1"><a xlink:title="Exportable format for a signature.">
<polygon fill="#bfbfbf" stroke="black" points="0,-0.5 0,-19.5 90,-19.5 90,-0.5 0,-0.5"/>
<text text-anchor="middle" x="45" y="-7.5" font-family="Helvetica,sans-Serif" font-size="10.00">XmssSignature</text>
</a>
</g>
</g>
<!-- Node2 -->
<g id="node2" class="node">
<title>Node2</title>
<g id="a_node2"><a xlink:href="structXmssValue256.html" target="_top" xlink:title="A generic 256&#45;bit value, represented as a byte stream.">
<polygon fill="white" stroke="black" points="0.5,-89.5 0.5,-108.5 89.5,-108.5 89.5,-89.5 0.5,-89.5"/>
<text text-anchor="middle" x="45" y="-96.5" font-family="Helvetica,sans-Serif" font-size="10.00">XmssValue256</text>
</a>
</g>
</g>
<!-- Node2&#45;&gt;Node1 -->
<g id="edge1" class="edge">
<title>Node2&#45;&gt;Node1</title>
<path fill="none" stroke="#9a32cd" stroke-dasharray="5,2" d="M45,-79.19C45,-60.74 45,-33.41 45,-19.62"/>
<polygon fill="#9a32cd" stroke="#9a32cd" points="41.5,-79.34 45,-89.34 48.5,-79.34 41.5,-79.34"/>
<text text-anchor="middle" x="95.5" y="-63" font-family="Helvetica,sans-Serif" font-size="10.00"> authentication_path</text>
<text text-anchor="middle" x="95.5" y="-52" font-family="Helvetica,sans-Serif" font-size="10.00">random_bytes</text>
<text text-anchor="middle" x="95.5" y="-41" font-family="Helvetica,sans-Serif" font-size="10.00">wots_signature</text>
</g>
</g>
</svg>
