<?xml version="1.0" encoding="UTF-8" standalone="no"?>
<!DOCTYPE svg PUBLIC "-//W3C//DTD SVG 1.1//EN"
 "http://www.w3.org/Graphics/SVG/1.1/DTD/svg11.dtd">
<!-- Generated by graphviz version 2.43.0 (0)
 -->
<!-- Title: structures.h Pages: 1 -->
<svg width="228pt" height="252pt"
 viewBox="0.00 0.00 227.50 252.00" xmlns="http://www.w3.org/2000/svg" xmlns:xlink="http://www.w3.org/1999/xlink">
<g id="graph0" class="graph" transform="scale(1 1) rotate(0) translate(4 248)">
<title>structures.h</title>
<polygon fill="white" stroke="transparent" points="-4,4 -4,-248 223.5,-248 223.5,4 -4,4"/>
<!-- Node1 -->
<g id="node1" class="node">
<title>Node1</title>
<g id="a_node1"><a xlink:title="XMSS library specific structured types.">
<polygon fill="#bfbfbf" stroke="black" points="41,-224.5 41,-243.5 115,-243.5 115,-224.5 41,-224.5"/>
<text text-anchor="middle" x="78" y="-231.5" font-family="Helvetica,sans-Serif" font-size="10.00">structures.h</text>
</a>
</g>
</g>
<!-- Node2 -->
<g id="node2" class="node">
<title>Node2</title>
<g id="a_node2"><a xlink:href="compat_8h.html" target="_top" xlink:title="C99 compatibility layer.">
<polygon fill="white" stroke="black" points="12,-56.5 12,-75.5 74,-75.5 74,-56.5 12,-56.5"/>
<text text-anchor="middle" x="43" y="-63.5" font-family="Helvetica,sans-Serif" font-size="10.00">compat.h</text>
</a>
</g>
</g>
<!-- Node1&#45;&gt;Node2 -->
<g id="edge1" class="edge">
<title>Node1&#45;&gt;Node2</title>
<path fill="none" stroke="midnightblue" d="M55.21,-224.47C39.67,-217.32 20.29,-205.44 11,-188 -7.23,-153.8 15.47,-108.54 30.92,-84.21"/>
<polygon fill="midnightblue" stroke="midnightblue" points="33.95,-85.97 36.57,-75.71 28.12,-82.1 33.95,-85.97"/>
</g>
<!-- Node4 -->
<g id="node4" class="node">
<title>Node4</title>
<g id="a_node4"><a xlink:href="opaque__structures_8h.html" target="_top" xlink:title="Public definitions of opaque structures and memory management calls for those.">
<polygon fill="white" stroke="black" points="20,-168.5 20,-187.5 136,-187.5 136,-168.5 20,-168.5"/>
<text text-anchor="middle" x="78" y="-175.5" font-family="Helvetica,sans-Serif" font-size="10.00">opaque_structures.h</text>
</a>
</g>
</g>
<!-- Node1&#45;&gt;Node4 -->
<g id="edge3" class="edge">
<title>Node1&#45;&gt;Node4</title>
<path fill="none" stroke="midnightblue" d="M78,-224.08C78,-217.01 78,-206.86 78,-197.99"/>
<polygon fill="midnightblue" stroke="midnightblue" points="81.5,-197.75 78,-187.75 74.5,-197.75 81.5,-197.75"/>
</g>
<!-- Node5 -->
<g id="node5" class="node">
<title>Node5</title>
<g id="a_node5"><a xlink:href="types_8h.html" target="_top" xlink:title="Enumerations, basic types and callback function specifications.">
<polygon fill="white" stroke="black" points="93.5,-112.5 93.5,-131.5 146.5,-131.5 146.5,-112.5 93.5,-112.5"/>
<text text-anchor="middle" x="120" y="-119.5" font-family="Helvetica,sans-Serif" font-size="10.00">types.h</text>
</a>
</g>
</g>
<!-- Node1&#45;&gt;Node5 -->
<g id="edge9" class="edge">
<title>Node1&#45;&gt;Node5</title>
<path fill="none" stroke="midnightblue" d="M100.79,-224.47C116.33,-217.32 135.71,-205.44 145,-188 153.4,-172.25 143.79,-153.04 134.16,-139.61"/>
<polygon fill="midnightblue" stroke="midnightblue" points="136.91,-137.45 128.01,-131.71 131.39,-141.75 136.91,-137.45"/>
</g>
<!-- Node3 -->
<g id="node3" class="node">
<title>Node3</title>
<g id="a_node3"><a xlink:href="xmss__config_8h.html" target="_top" xlink:title="The configurable CMake options that affect the public API.">
<polygon fill="white" stroke="black" points="0,-0.5 0,-19.5 86,-19.5 86,-0.5 0,-0.5"/>
<text text-anchor="middle" x="43" y="-7.5" font-family="Helvetica,sans-Serif" font-size="10.00">xmss_config.h</text>
</a>
</g>
</g>
<!-- Node2&#45;&gt;Node3 -->
<g id="edge2" class="edge">
<title>Node2&#45;&gt;Node3</title>
<path fill="none" stroke="midnightblue" d="M43,-56.08C43,-49.01 43,-38.86 43,-29.99"/>
<polygon fill="midnightblue" stroke="midnightblue" points="46.5,-29.75 43,-19.75 39.5,-29.75 46.5,-29.75"/>
</g>
<!-- Node4&#45;&gt;Node2 -->
<g id="edge8" class="edge">
<title>Node4&#45;&gt;Node2</title>
<path fill="none" stroke="midnightblue" d="M75.25,-168.37C69.58,-150.54 56.46,-109.3 48.81,-85.27"/>
<polygon fill="midnightblue" stroke="midnightblue" points="52.1,-84.06 45.73,-75.59 45.43,-86.18 52.1,-84.06"/>
</g>
<!-- Node4&#45;&gt;Node5 -->
<g id="edge4" class="edge">
<title>Node4&#45;&gt;Node5</title>
<path fill="none" stroke="midnightblue" d="M84.94,-168.08C90.93,-160.38 99.75,-149.03 107.05,-139.65"/>
<polygon fill="midnightblue" stroke="midnightblue" points="109.82,-141.79 113.19,-131.75 104.29,-137.5 109.82,-141.79"/>
</g>
<!-- Node5&#45;&gt;Node2 -->
<g id="edge7" class="edge">
<title>Node5&#45;&gt;Node2</title>
<path fill="none" stroke="midnightblue" d="M107.63,-112.32C95.84,-104.06 77.87,-91.45 63.86,-81.63"/>
<polygon fill="midnightblue" stroke="midnightblue" points="65.54,-78.53 55.34,-75.65 61.52,-84.26 65.54,-78.53"/>
</g>
<!-- Node6 -->
<g id="node6" class="node">
<title>Node6</title>
<g id="a_node6"><a xlink:title=" ">
<polygon fill="white" stroke="#bfbfbf" points="92,-56.5 92,-75.5 148,-75.5 148,-56.5 92,-56.5"/>
<text text-anchor="middle" x="120" y="-63.5" font-family="Helvetica,sans-Serif" font-size="10.00">stddef.h</text>
</a>
</g>
</g>
<!-- Node5&#45;&gt;Node6 -->
<g id="edge5" class="edge">
<title>Node5&#45;&gt;Node6</title>
<path fill="none" stroke="midnightblue" d="M120,-112.08C120,-105.01 120,-94.86 120,-85.99"/>
<polygon fill="midnightblue" stroke="midnightblue" points="123.5,-85.75 120,-75.75 116.5,-85.75 123.5,-85.75"/>
</g>
<!-- Node7 -->
<g id="node7" class="node">
<title>Node7</title>
<g id="a_node7"><a xlink:title=" ">
<polygon fill="white" stroke="#bfbfbf" points="166.5,-56.5 166.5,-75.5 219.5,-75.5 219.5,-56.5 166.5,-56.5"/>
<text text-anchor="middle" x="193" y="-63.5" font-family="Helvetica,sans-Serif" font-size="10.00">stdint.h</text>
</a>
</g>
</g>
<!-- Node5&#45;&gt;Node7 -->
<g id="edge6" class="edge">
<title>Node5&#45;&gt;Node7</title>
<path fill="none" stroke="midnightblue" d="M131.73,-112.32C142.84,-104.11 159.74,-91.6 172.98,-81.81"/>
<polygon fill="midnightblue" stroke="midnightblue" points="175.1,-84.59 181.06,-75.83 170.94,-78.97 175.1,-84.59"/>
</g>
</g>
</svg>
