<?xml version="1.0" encoding="UTF-8" standalone="no"?>
<!DOCTYPE svg PUBLIC "-//W3C//DTD SVG 1.1//EN"
 "http://www.w3.org/Graphics/SVG/1.1/DTD/svg11.dtd">
<!-- Generated by graphviz version 2.43.0 (0)
 -->
<!-- Title: XmssPublicKeyBlob Pages: 1 -->
<svg width="121pt" height="173pt"
 viewBox="0.00 0.00 121.00 173.00" xmlns="http://www.w3.org/2000/svg" xmlns:xlink="http://www.w3.org/1999/xlink">
<g id="graph0" class="graph" transform="scale(1 1) rotate(0) translate(4 169)">
<title>XmssPublicKeyBlob</title>
<polygon fill="white" stroke="transparent" points="-4,4 -4,-169 117,-169 117,4 -4,4"/>
<!-- Node1 -->
<g id="node1" class="node">
<title>Node1</title>
<g id="a_node1"><a xlink:title="Structure containing the size and the public key formatted for export.">
<polygon fill="#bfbfbf" stroke="black" points="0,-0.5 0,-19.5 113,-19.5 113,-0.5 0,-0.5"/>
<text text-anchor="middle" x="56.5" y="-7.5" font-family="Helvetica,sans-Serif" font-size="10.00">XmssPublicKeyBlob</text>
</a>
</g>
</g>
<!-- Node2 -->
<g id="node2" class="node">
<title>Node2</title>
<g id="a_node2"><a xlink:href="structXmssPublicKey.html" target="_top" xlink:title="Exportable format for a public key.">
<polygon fill="white" stroke="black" points="11,-67.5 11,-86.5 102,-86.5 102,-67.5 11,-67.5"/>
<text text-anchor="middle" x="56.5" y="-74.5" font-family="Helvetica,sans-Serif" font-size="10.00">XmssPublicKey</text>
</a>
</g>
</g>
<!-- Node2&#45;&gt;Node1 -->
<g id="edge1" class="edge">
<title>Node2&#45;&gt;Node1</title>
<path fill="none" stroke="#9a32cd" stroke-dasharray="5,2" d="M56.5,-57.04C56.5,-44.67 56.5,-29.12 56.5,-19.63"/>
<polygon fill="#9a32cd" stroke="#9a32cd" points="53,-57.23 56.5,-67.23 60,-57.23 53,-57.23"/>
<text text-anchor="middle" x="69" y="-41" font-family="Helvetica,sans-Serif" font-size="10.00"> data</text>
</g>
<!-- Node3 -->
<g id="node3" class="node">
<title>Node3</title>
<g id="a_node3"><a xlink:href="structXmssValue256.html" target="_top" xlink:title="A generic 256&#45;bit value, represented as a byte stream.">
<polygon fill="white" stroke="black" points="12,-145.5 12,-164.5 101,-164.5 101,-145.5 12,-145.5"/>
<text text-anchor="middle" x="56.5" y="-152.5" font-family="Helvetica,sans-Serif" font-size="10.00">XmssValue256</text>
</a>
</g>
</g>
<!-- Node3&#45;&gt;Node2 -->
<g id="edge2" class="edge">
<title>Node3&#45;&gt;Node2</title>
<path fill="none" stroke="#9a32cd" stroke-dasharray="5,2" d="M56.5,-135.22C56.5,-119.7 56.5,-98.36 56.5,-86.62"/>
<polygon fill="#9a32cd" stroke="#9a32cd" points="53,-135.28 56.5,-145.28 60,-135.28 53,-135.28"/>
<text text-anchor="middle" x="84" y="-119" font-family="Helvetica,sans-Serif" font-size="10.00"> public_key</text>
<text text-anchor="middle" x="84" y="-108" font-family="Helvetica,sans-Serif" font-size="10.00">seed</text>
</g>
</g>
</svg>
