<?xml version="1.0" encoding="UTF-8" standalone="no"?>
<!DOCTYPE svg PUBLIC "-//W3C//DTD SVG 1.1//EN"
 "http://www.w3.org/Graphics/SVG/1.1/DTD/svg11.dtd">
<!-- Generated by graphviz version 2.43.0 (0)
 -->
<!-- Title: XmssPublicKey Pages: 1 -->
<svg width="99pt" height="106pt"
 viewBox="0.00 0.00 99.00 106.00" xmlns="http://www.w3.org/2000/svg" xmlns:xlink="http://www.w3.org/1999/xlink">
<g id="graph0" class="graph" transform="scale(1 1) rotate(0) translate(4 102)">
<title>XmssPublicKey</title>
<polygon fill="white" stroke="transparent" points="-4,4 -4,-102 95,-102 95,4 -4,4"/>
<!-- Node1 -->
<g id="node1" class="node">
<title>Node1</title>
<g id="a_node1"><a xlink:title="Exportable format for a public key.">
<polygon fill="#bfbfbf" stroke="black" points="0,-0.5 0,-19.5 91,-19.5 91,-0.5 0,-0.5"/>
<text text-anchor="middle" x="45.5" y="-7.5" font-family="Helvetica,sans-Serif" font-size="10.00">XmssPublicKey</text>
</a>
</g>
</g>
<!-- Node2 -->
<g id="node2" class="node">
<title>Node2</title>
<g id="a_node2"><a xlink:href="structXmssValue256.html" target="_top" xlink:title="A generic 256&#45;bit value, represented as a byte stream.">
<polygon fill="white" stroke="black" points="1,-78.5 1,-97.5 90,-97.5 90,-78.5 1,-78.5"/>
<text text-anchor="middle" x="45.5" y="-85.5" font-family="Helvetica,sans-Serif" font-size="10.00">XmssValue256</text>
</a>
</g>
</g>
<!-- Node2&#45;&gt;Node1 -->
<g id="edge1" class="edge">
<title>Node2&#45;&gt;Node1</title>
<path fill="none" stroke="#9a32cd" stroke-dasharray="5,2" d="M45.5,-68.22C45.5,-52.7 45.5,-31.36 45.5,-19.62"/>
<polygon fill="#9a32cd" stroke="#9a32cd" points="42,-68.28 45.5,-78.28 49,-68.28 42,-68.28"/>
<text text-anchor="middle" x="57.5" y="-52" font-family="Helvetica,sans-Serif" font-size="10.00"> root</text>
<text text-anchor="middle" x="57.5" y="-41" font-family="Helvetica,sans-Serif" font-size="10.00">seed</text>
</g>
</g>
</svg>
