<?xml version="1.0" encoding="UTF-8" standalone="no"?>
<!DOCTYPE svg PUBLIC "-//W3C//DTD SVG 1.1//EN"
 "http://www.w3.org/Graphics/SVG/1.1/DTD/svg11.dtd">
<!-- Generated by graphviz version 2.43.0 (0)
 -->
<!-- Title: types.h Pages: 1 -->
<svg width="988pt" height="207pt"
 viewBox="0.00 0.00 987.50 207.00" xmlns="http://www.w3.org/2000/svg" xmlns:xlink="http://www.w3.org/1999/xlink">
<g id="graph0" class="graph" transform="scale(1 1) rotate(0) translate(4 203)">
<title>types.h</title>
<polygon fill="white" stroke="transparent" points="-4,4 -4,-203 983.5,-203 983.5,4 -4,4"/>
<!-- Node1 -->
<g id="node1" class="node">
<title>Node1</title>
<g id="a_node1"><a xlink:title="Enumerations, basic types and callback function specifications.">
<polygon fill="#bfbfbf" stroke="black" points="309,-179.5 309,-198.5 362,-198.5 362,-179.5 309,-179.5"/>
<text text-anchor="middle" x="335.5" y="-186.5" font-family="Helvetica,sans-Serif" font-size="10.00">types.h</text>
</a>
</g>
</g>
<!-- Node2 -->
<g id="node2" class="node">
<title>Node2</title>
<g id="a_node2"><a xlink:href="generic__digest_8h.html" target="_top" xlink:title="Abstract typedefs for hash function overrides using the generic interface.">
<polygon fill="white" stroke="black" points="0,-118 0,-137 97,-137 97,-118 0,-118"/>
<text text-anchor="middle" x="48.5" y="-125" font-family="Helvetica,sans-Serif" font-size="10.00">generic_digest.h</text>
</a>
</g>
</g>
<!-- Node1&#45;&gt;Node2 -->
<g id="edge1" class="edge">
<title>Node1&#45;&gt;Node2</title>
<path fill="none" stroke="midnightblue" d="M298.87,-180.97C254.46,-172.37 177.37,-157.19 111.5,-143 102.83,-141.13 93.51,-139.04 84.77,-137.03"/>
<polygon fill="midnightblue" stroke="midnightblue" points="298.42,-184.44 308.9,-182.91 299.75,-177.57 298.42,-184.44"/>
</g>
<!-- Node3 -->
<g id="node3" class="node">
<title>Node3</title>
<g id="a_node3"><a xlink:href="opaque__structures_8h.html" target="_top" xlink:title="Public definitions of opaque structures and memory management calls for those.">
<polygon fill="white" stroke="black" points="191.5,-118 191.5,-137 307.5,-137 307.5,-118 191.5,-118"/>
<text text-anchor="middle" x="249.5" y="-125" font-family="Helvetica,sans-Serif" font-size="10.00">opaque_structures.h</text>
</a>
</g>
</g>
<!-- Node1&#45;&gt;Node3 -->
<g id="edge2" class="edge">
<title>Node1&#45;&gt;Node3</title>
<path fill="none" stroke="midnightblue" d="M314.7,-173.61C298.16,-162.17 275.58,-146.55 261.8,-137.01"/>
<polygon fill="midnightblue" stroke="midnightblue" points="312.96,-176.66 323.18,-179.48 316.95,-170.91 312.96,-176.66"/>
</g>
<!-- Node4 -->
<g id="node4" class="node">
<title>Node4</title>
<g id="a_node4"><a xlink:href="structures_8h.html" target="_top" xlink:title="XMSS library specific structured types.">
<polygon fill="white" stroke="black" points="195.5,-56.5 195.5,-75.5 269.5,-75.5 269.5,-56.5 195.5,-56.5"/>
<text text-anchor="middle" x="232.5" y="-63.5" font-family="Helvetica,sans-Serif" font-size="10.00">structures.h</text>
</a>
</g>
</g>
<!-- Node1&#45;&gt;Node4 -->
<g id="edge11" class="edge">
<title>Node1&#45;&gt;Node4</title>
<path fill="none" stroke="midnightblue" d="M298.88,-182.35C258.22,-175.24 196.46,-161.66 182.5,-143 174.25,-131.97 176.89,-124.59 182.5,-112 189.63,-96 205.57,-83.3 217.55,-75.53"/>
<polygon fill="midnightblue" stroke="midnightblue" points="298.53,-185.84 308.97,-184.06 299.7,-178.94 298.53,-185.84"/>
</g>
<!-- Node5 -->
<g id="node5" class="node">
<title>Node5</title>
<g id="a_node5"><a xlink:href="signing_8h.html" target="_top" xlink:title="Public API for the XMSS signing library.">
<polygon fill="white" stroke="black" points="153,-0.5 153,-19.5 214,-19.5 214,-0.5 153,-0.5"/>
<text text-anchor="middle" x="183.5" y="-7.5" font-family="Helvetica,sans-Serif" font-size="10.00">signing.h</text>
</a>
</g>
</g>
<!-- Node1&#45;&gt;Node5 -->
<g id="edge10" class="edge">
<title>Node1&#45;&gt;Node5</title>
<path fill="none" stroke="midnightblue" d="M298.71,-182.97C255.74,-176.26 188.59,-162.86 173.5,-143 144.85,-105.31 168.78,-42.8 179.23,-19.83"/>
<polygon fill="midnightblue" stroke="midnightblue" points="298.39,-186.46 308.8,-184.5 299.43,-179.54 298.39,-186.46"/>
</g>
<!-- Node6 -->
<g id="node6" class="node">
<title>Node6</title>
<g id="a_node6"><a xlink:href="verification_8h.html" target="_top" xlink:title="Public API for the XMSS verification library.">
<polygon fill="white" stroke="black" points="241.5,-0.5 241.5,-19.5 321.5,-19.5 321.5,-0.5 241.5,-0.5"/>
<text text-anchor="middle" x="281.5" y="-7.5" font-family="Helvetica,sans-Serif" font-size="10.00">verification.h</text>
</a>
</g>
</g>
<!-- Node1&#45;&gt;Node6 -->
<g id="edge12" class="edge">
<title>Node1&#45;&gt;Node6</title>
<path fill="none" stroke="midnightblue" d="M331.39,-169.66C327.82,-154.19 322.31,-131.51 316.5,-112 306.18,-77.32 291.27,-36.87 284.76,-19.56"/>
<polygon fill="midnightblue" stroke="midnightblue" points="328,-170.52 333.63,-179.5 334.83,-168.97 328,-170.52"/>
</g>
<!-- Node7 -->
<g id="node7" class="node">
<title>Node7</title>
<g id="a_node7"><a xlink:href="override__sha256__generic_8h.html" target="_top" xlink:title="Prototypes for the SHA&#45;256 hash function override using the generic interface.">
<polygon fill="white" stroke="black" points="363.5,-118 363.5,-137 511.5,-137 511.5,-118 363.5,-118"/>
<text text-anchor="middle" x="437.5" y="-125" font-family="Helvetica,sans-Serif" font-size="10.00">override_sha256_generic.h</text>
</a>
</g>
</g>
<!-- Node1&#45;&gt;Node7 -->
<g id="edge6" class="edge">
<title>Node1&#45;&gt;Node7</title>
<path fill="none" stroke="midnightblue" d="M358.81,-174.4C378.54,-162.9 406.19,-146.77 422.91,-137.01"/>
<polygon fill="midnightblue" stroke="midnightblue" points="356.99,-171.41 350.11,-179.48 360.52,-177.46 356.99,-171.41"/>
</g>
<!-- Node8 -->
<g id="node8" class="node">
<title>Node8</title>
<g id="a_node8"><a xlink:href="override__sha256__internal_8h.html" target="_top" xlink:title="Prototype for the SHA&#45;256 hash function override using the internal interface.">
<polygon fill="white" stroke="black" points="530,-118 530,-137 679,-137 679,-118 530,-118"/>
<text text-anchor="middle" x="604.5" y="-125" font-family="Helvetica,sans-Serif" font-size="10.00">override_sha256_internal.h</text>
</a>
</g>
</g>
<!-- Node1&#45;&gt;Node8 -->
<g id="edge7" class="edge">
<title>Node1&#45;&gt;Node8</title>
<path fill="none" stroke="midnightblue" d="M372.15,-179.89C422.86,-168.68 514,-148.52 565.78,-137.06"/>
<polygon fill="midnightblue" stroke="midnightblue" points="371.28,-176.5 362.28,-182.08 372.8,-183.34 371.28,-176.5"/>
</g>
<!-- Node9 -->
<g id="node9" class="node">
<title>Node9</title>
<g id="a_node9"><a xlink:href="override__shake256__256__generic_8h.html" target="_top" xlink:title="Prototypes for the SHAKE256/256 hash function override using the generic interface.">
<polygon fill="white" stroke="black" points="697.5,-112.5 697.5,-142.5 829.5,-142.5 829.5,-112.5 697.5,-112.5"/>
<text text-anchor="start" x="705.5" y="-130.5" font-family="Helvetica,sans-Serif" font-size="10.00">override_shake256_256</text>
<text text-anchor="middle" x="763.5" y="-119.5" font-family="Helvetica,sans-Serif" font-size="10.00">_generic.h</text>
</a>
</g>
</g>
<!-- Node1&#45;&gt;Node9 -->
<g id="edge8" class="edge">
<title>Node1&#45;&gt;Node9</title>
<path fill="none" stroke="midnightblue" d="M372.19,-184.11C436.46,-177.12 573.51,-161.43 688.5,-143 691.38,-142.54 694.32,-142.05 697.29,-141.54"/>
<polygon fill="midnightblue" stroke="midnightblue" points="371.72,-180.64 362.15,-185.19 372.47,-187.6 371.72,-180.64"/>
</g>
<!-- Node10 -->
<g id="node10" class="node">
<title>Node10</title>
<g id="a_node10"><a xlink:href="override__shake256__256__internal_8h.html" target="_top" xlink:title="Prototypes for the SHAKE256/256 hash function override using the internal interface.">
<polygon fill="white" stroke="black" points="847.5,-112.5 847.5,-142.5 979.5,-142.5 979.5,-112.5 847.5,-112.5"/>
<text text-anchor="start" x="855.5" y="-130.5" font-family="Helvetica,sans-Serif" font-size="10.00">override_shake256_256</text>
<text text-anchor="middle" x="913.5" y="-119.5" font-family="Helvetica,sans-Serif" font-size="10.00">_internal.h</text>
</a>
</g>
</g>
<!-- Node1&#45;&gt;Node10 -->
<g id="edge9" class="edge">
<title>Node1&#45;&gt;Node10</title>
<path fill="none" stroke="midnightblue" d="M372.27,-186C455.56,-181.18 664.88,-167.48 838.5,-143 841.39,-142.59 844.34,-142.15 847.31,-141.68"/>
<polygon fill="midnightblue" stroke="midnightblue" points="371.84,-182.51 362.06,-186.58 372.24,-189.5 371.84,-182.51"/>
</g>
<!-- Node3&#45;&gt;Node4 -->
<g id="edge3" class="edge">
<title>Node3&#45;&gt;Node4</title>
<path fill="none" stroke="midnightblue" d="M244.26,-108.16C241.15,-97.27 237.35,-83.99 234.93,-75.51"/>
<polygon fill="midnightblue" stroke="midnightblue" points="240.95,-109.32 247.06,-117.98 247.68,-107.4 240.95,-109.32"/>
</g>
<!-- Node4&#45;&gt;Node5 -->
<g id="edge4" class="edge">
<title>Node4&#45;&gt;Node5</title>
<path fill="none" stroke="midnightblue" d="M217.47,-48.43C208.88,-38.97 198.46,-27.48 191.44,-19.75"/>
<polygon fill="midnightblue" stroke="midnightblue" points="215.1,-51.03 224.41,-56.08 220.28,-46.33 215.1,-51.03"/>
</g>
<!-- Node4&#45;&gt;Node6 -->
<g id="edge5" class="edge">
<title>Node4&#45;&gt;Node6</title>
<path fill="none" stroke="midnightblue" d="M247.53,-48.43C256.12,-38.97 266.54,-27.48 273.56,-19.75"/>
<polygon fill="midnightblue" stroke="midnightblue" points="244.72,-46.33 240.59,-56.08 249.9,-51.03 244.72,-46.33"/>
</g>
</g>
</svg>
