<?xml version="1.0" encoding="UTF-8" standalone="no"?>
<!DOCTYPE svg PUBLIC "-//W3C//DTD SVG 1.1//EN"
 "http://www.w3.org/Graphics/SVG/1.1/DTD/svg11.dtd">
<!-- Generated by graphviz version 2.43.0 (0)
 -->
<!-- Title: types.h Pages: 1 -->
<svg width="1060pt" height="207pt"
 viewBox="0.00 0.00 1060.00 207.00" xmlns="http://www.w3.org/2000/svg" xmlns:xlink="http://www.w3.org/1999/xlink">
<g id="graph0" class="graph" transform="scale(1 1) rotate(0) translate(4 203)">
<title>types.h</title>
<polygon fill="white" stroke="transparent" points="-4,4 -4,-203 1056,-203 1056,4 -4,4"/>
<!-- Node1 -->
<g id="node1" class="node">
<title>Node1</title>
<g id="a_node1"><a xlink:title="Enumerations, basic types and callback function specifications.">
<polygon fill="#bfbfbf" stroke="black" points="338.5,-179.5 338.5,-198.5 391.5,-198.5 391.5,-179.5 338.5,-179.5"/>
<text text-anchor="middle" x="365" y="-186.5" font-family="Helvetica,sans-Serif" font-size="10.00">types.h</text>
</a>
</g>
</g>
<!-- Node2 -->
<g id="node2" class="node">
<title>Node2</title>
<g id="a_node2"><a xlink:href="errors_8h.html" target="_top" xlink:title="Public API for XMSS error handling.">
<polygon fill="white" stroke="black" points="0,-118 0,-137 54,-137 54,-118 0,-118"/>
<text text-anchor="middle" x="27" y="-125" font-family="Helvetica,sans-Serif" font-size="10.00">errors.h</text>
</a>
</g>
</g>
<!-- Node1&#45;&gt;Node2 -->
<g id="edge1" class="edge">
<title>Node1&#45;&gt;Node2</title>
<path fill="none" stroke="midnightblue" d="M328.27,-185.32C270.84,-180.52 156.66,-168.46 63,-143 57.28,-141.44 51.24,-139.25 45.77,-137.03"/>
<polygon fill="midnightblue" stroke="midnightblue" points="328.06,-188.82 338.31,-186.14 328.63,-181.84 328.06,-188.82"/>
</g>
<!-- Node3 -->
<g id="node3" class="node">
<title>Node3</title>
<g id="a_node3"><a xlink:href="generic__digest_8h.html" target="_top" xlink:title="Abstract typedefs for hash function overrides using the generic interface.">
<polygon fill="white" stroke="black" points="72.5,-118 72.5,-137 169.5,-137 169.5,-118 72.5,-118"/>
<text text-anchor="middle" x="121" y="-125" font-family="Helvetica,sans-Serif" font-size="10.00">generic_digest.h</text>
</a>
</g>
</g>
<!-- Node1&#45;&gt;Node3 -->
<g id="edge2" class="edge">
<title>Node1&#45;&gt;Node3</title>
<path fill="none" stroke="midnightblue" d="M328.47,-179.09C281.93,-167.74 202.05,-148.27 156.18,-137.08"/>
<polygon fill="midnightblue" stroke="midnightblue" points="327.88,-182.55 338.42,-181.52 329.54,-175.75 327.88,-182.55"/>
</g>
<!-- Node4 -->
<g id="node4" class="node">
<title>Node4</title>
<g id="a_node4"><a xlink:href="opaque__structures_8h.html" target="_top" xlink:title="Public definitions of opaque structures and memory management calls for those.">
<polygon fill="white" stroke="black" points="264,-118 264,-137 380,-137 380,-118 264,-118"/>
<text text-anchor="middle" x="322" y="-125" font-family="Helvetica,sans-Serif" font-size="10.00">opaque_structures.h</text>
</a>
</g>
</g>
<!-- Node1&#45;&gt;Node4 -->
<g id="edge3" class="edge">
<title>Node1&#45;&gt;Node4</title>
<path fill="none" stroke="midnightblue" d="M352.96,-171.34C344.89,-160.17 334.59,-145.93 328.15,-137.01"/>
<polygon fill="midnightblue" stroke="midnightblue" points="350.14,-173.42 358.84,-179.48 355.82,-169.32 350.14,-173.42"/>
</g>
<!-- Node5 -->
<g id="node5" class="node">
<title>Node5</title>
<g id="a_node5"><a xlink:href="structures_8h.html" target="_top" xlink:title="XMSS library specific structured types.">
<polygon fill="white" stroke="black" points="226,-56.5 226,-75.5 300,-75.5 300,-56.5 226,-56.5"/>
<text text-anchor="middle" x="263" y="-63.5" font-family="Helvetica,sans-Serif" font-size="10.00">structures.h</text>
</a>
</g>
</g>
<!-- Node1&#45;&gt;Node5 -->
<g id="edge13" class="edge">
<title>Node1&#45;&gt;Node5</title>
<path fill="none" stroke="midnightblue" d="M328.44,-183.59C303.17,-178.43 271.27,-167.24 255,-143 241.1,-122.29 251.93,-91.01 258.66,-75.85"/>
<polygon fill="midnightblue" stroke="midnightblue" points="327.99,-187.07 338.45,-185.4 329.23,-180.18 327.99,-187.07"/>
</g>
<!-- Node6 -->
<g id="node6" class="node">
<title>Node6</title>
<g id="a_node6"><a xlink:href="signing_8h.html" target="_top" xlink:title="Public API for the XMSS signing library.">
<polygon fill="white" stroke="black" points="188.5,-0.5 188.5,-19.5 249.5,-19.5 249.5,-0.5 188.5,-0.5"/>
<text text-anchor="middle" x="219" y="-7.5" font-family="Helvetica,sans-Serif" font-size="10.00">signing.h</text>
</a>
</g>
</g>
<!-- Node1&#45;&gt;Node6 -->
<g id="edge12" class="edge">
<title>Node1&#45;&gt;Node6</title>
<path fill="none" stroke="midnightblue" d="M328.41,-182.24C302.25,-176.39 267.77,-164.94 245,-143 210.02,-109.29 214.72,-43.22 217.71,-19.63"/>
<polygon fill="midnightblue" stroke="midnightblue" points="327.85,-185.69 338.35,-184.28 329.26,-178.84 327.85,-185.69"/>
</g>
<!-- Node7 -->
<g id="node7" class="node">
<title>Node7</title>
<g id="a_node7"><a xlink:href="verification_8h.html" target="_top" xlink:title="Public API for the XMSS verification library.">
<polygon fill="white" stroke="black" points="288,-0.5 288,-19.5 368,-19.5 368,-0.5 288,-0.5"/>
<text text-anchor="middle" x="328" y="-7.5" font-family="Helvetica,sans-Serif" font-size="10.00">verification.h</text>
</a>
</g>
</g>
<!-- Node1&#45;&gt;Node7 -->
<g id="edge14" class="edge">
<title>Node1&#45;&gt;Node7</title>
<path fill="none" stroke="midnightblue" d="M376.76,-170.77C381.56,-162.71 386.56,-152.75 389,-143 392.34,-129.63 392.7,-125.27 389,-112 378.45,-74.11 349.41,-36.24 335.55,-19.68"/>
<polygon fill="midnightblue" stroke="midnightblue" points="373.79,-168.92 371.37,-179.23 379.69,-172.68 373.79,-168.92"/>
</g>
<!-- Node8 -->
<g id="node8" class="node">
<title>Node8</title>
<g id="a_node8"><a xlink:href="override__sha256__generic_8h.html" target="_top" xlink:title="Prototypes for the SHA&#45;256 hash function override using the generic interface.">
<polygon fill="white" stroke="black" points="436,-118 436,-137 584,-137 584,-118 436,-118"/>
<text text-anchor="middle" x="510" y="-125" font-family="Helvetica,sans-Serif" font-size="10.00">override_sha256_generic.h</text>
</a>
</g>
</g>
<!-- Node1&#45;&gt;Node8 -->
<g id="edge8" class="edge">
<title>Node1&#45;&gt;Node8</title>
<path fill="none" stroke="midnightblue" d="M395.14,-175.63C423.31,-164.07 464.62,-147.12 489.26,-137.01"/>
<polygon fill="midnightblue" stroke="midnightblue" points="393.7,-172.44 385.77,-179.48 396.36,-178.92 393.7,-172.44"/>
</g>
<!-- Node9 -->
<g id="node9" class="node">
<title>Node9</title>
<g id="a_node9"><a xlink:href="override__sha256__internal_8h.html" target="_top" xlink:title="Prototype for the SHA&#45;256 hash function override using the internal interface.">
<polygon fill="white" stroke="black" points="602.5,-118 602.5,-137 751.5,-137 751.5,-118 602.5,-118"/>
<text text-anchor="middle" x="677" y="-125" font-family="Helvetica,sans-Serif" font-size="10.00">override_sha256_internal.h</text>
</a>
</g>
</g>
<!-- Node1&#45;&gt;Node9 -->
<g id="edge9" class="edge">
<title>Node1&#45;&gt;Node9</title>
<path fill="none" stroke="midnightblue" d="M401.69,-181C459.2,-170.04 570.39,-148.83 632.42,-137"/>
<polygon fill="midnightblue" stroke="midnightblue" points="400.77,-177.62 391.6,-182.93 402.08,-184.49 400.77,-177.62"/>
</g>
<!-- Node10 -->
<g id="node10" class="node">
<title>Node10</title>
<g id="a_node10"><a xlink:href="override__shake256__256__generic_8h.html" target="_top" xlink:title="Prototypes for the SHAKE256/256 hash function override using the generic interface.">
<polygon fill="white" stroke="black" points="770,-112.5 770,-142.5 902,-142.5 902,-112.5 770,-112.5"/>
<text text-anchor="start" x="778" y="-130.5" font-family="Helvetica,sans-Serif" font-size="10.00">override_shake256_256</text>
<text text-anchor="middle" x="836" y="-119.5" font-family="Helvetica,sans-Serif" font-size="10.00">_generic.h</text>
</a>
</g>
</g>
<!-- Node1&#45;&gt;Node10 -->
<g id="edge10" class="edge">
<title>Node1&#45;&gt;Node10</title>
<path fill="none" stroke="midnightblue" d="M401.58,-184.8C471.59,-178.47 629.26,-163.19 761,-143 763.88,-142.56 766.83,-142.08 769.8,-141.59"/>
<polygon fill="midnightblue" stroke="midnightblue" points="401.16,-181.33 391.51,-185.71 401.78,-188.3 401.16,-181.33"/>
</g>
<!-- Node11 -->
<g id="node11" class="node">
<title>Node11</title>
<g id="a_node11"><a xlink:href="override__shake256__256__internal_8h.html" target="_top" xlink:title="Prototypes for the SHAKE256/256 hash function override using the internal interface.">
<polygon fill="white" stroke="black" points="920,-112.5 920,-142.5 1052,-142.5 1052,-112.5 920,-112.5"/>
<text text-anchor="start" x="928" y="-130.5" font-family="Helvetica,sans-Serif" font-size="10.00">override_shake256_256</text>
<text text-anchor="middle" x="986" y="-119.5" font-family="Helvetica,sans-Serif" font-size="10.00">_internal.h</text>
</a>
</g>
</g>
<!-- Node1&#45;&gt;Node11 -->
<g id="edge11" class="edge">
<title>Node1&#45;&gt;Node11</title>
<path fill="none" stroke="midnightblue" d="M401.55,-186.36C489.57,-182.12 720.17,-169.23 911,-143 913.89,-142.6 916.84,-142.17 919.81,-141.7"/>
<polygon fill="midnightblue" stroke="midnightblue" points="401.36,-182.87 391.53,-186.84 401.69,-189.86 401.36,-182.87"/>
</g>
<!-- Node4&#45;&gt;Node5 -->
<g id="edge4" class="edge">
<title>Node4&#45;&gt;Node5</title>
<path fill="none" stroke="midnightblue" d="M306.46,-110.82C295.25,-99.52 280.54,-84.69 271.44,-75.51"/>
<polygon fill="midnightblue" stroke="midnightblue" points="304.02,-113.34 313.55,-117.98 308.99,-108.41 304.02,-113.34"/>
</g>
<!-- Node4&#45;&gt;Node7 -->
<g id="edge7" class="edge">
<title>Node4&#45;&gt;Node7</title>
<path fill="none" stroke="midnightblue" d="M322.98,-107.66C324.29,-82.37 326.57,-38.44 327.54,-19.78"/>
<polygon fill="midnightblue" stroke="midnightblue" points="319.47,-107.65 322.45,-117.82 326.47,-108.01 319.47,-107.65"/>
</g>
<!-- Node5&#45;&gt;Node6 -->
<g id="edge5" class="edge">
<title>Node5&#45;&gt;Node6</title>
<path fill="none" stroke="midnightblue" d="M249.27,-48.14C241.6,-38.74 232.37,-27.4 226.13,-19.75"/>
<polygon fill="midnightblue" stroke="midnightblue" points="246.7,-50.54 255.73,-56.08 252.13,-46.12 246.7,-50.54"/>
</g>
<!-- Node5&#45;&gt;Node7 -->
<g id="edge6" class="edge">
<title>Node5&#45;&gt;Node7</title>
<path fill="none" stroke="midnightblue" d="M281.27,-49.82C292.92,-40.15 307.6,-27.95 317.37,-19.83"/>
<polygon fill="midnightblue" stroke="midnightblue" points="278.9,-47.24 273.44,-56.32 283.37,-52.63 278.9,-47.24"/>
</g>
</g>
</svg>
