<?xml version="1.0" encoding="UTF-8" standalone="no"?>
<!DOCTYPE svg PUBLIC "-//W3C//DTD SVG 1.1//EN"
 "http://www.w3.org/Graphics/SVG/1.1/DTD/svg11.dtd">
<!-- Generated by graphviz version 2.43.0 (0)
 -->
<!-- Title: verification.h Pages: 1 -->
<svg width="263pt" height="308pt"
 viewBox="0.00 0.00 263.20 308.00" xmlns="http://www.w3.org/2000/svg" xmlns:xlink="http://www.w3.org/1999/xlink">
<g id="graph0" class="graph" transform="scale(1 1) rotate(0) translate(4 304)">
<title>verification.h</title>
<polygon fill="white" stroke="transparent" points="-4,4 -4,-304 259.2,-304 259.2,4 -4,4"/>
<!-- Node1 -->
<g id="node1" class="node">
<title>Node1</title>
<g id="a_node1"><a xlink:title="Public API for the XMSS verification library.">
<polygon fill="#bfbfbf" stroke="black" points="81.5,-280.5 81.5,-299.5 161.5,-299.5 161.5,-280.5 81.5,-280.5"/>
<text text-anchor="middle" x="121.5" y="-287.5" font-family="Helvetica,sans-Serif" font-size="10.00">verification.h</text>
</a>
</g>
</g>
<!-- Node2 -->
<g id="node2" class="node">
<title>Node2</title>
<g id="a_node2"><a xlink:href="opaque__structures_8h.html" target="_top" xlink:title="Public definitions of opaque structures and memory management calls for those.">
<polygon fill="white" stroke="black" points="122.5,-168.5 122.5,-187.5 238.5,-187.5 238.5,-168.5 122.5,-168.5"/>
<text text-anchor="middle" x="180.5" y="-175.5" font-family="Helvetica,sans-Serif" font-size="10.00">opaque_structures.h</text>
</a>
</g>
</g>
<!-- Node1&#45;&gt;Node2 -->
<g id="edge1" class="edge">
<title>Node1&#45;&gt;Node2</title>
<path fill="none" stroke="midnightblue" d="M133.68,-280.46C144.32,-272.34 159.3,-259.12 167.5,-244 175.3,-229.62 178.45,-211.16 179.7,-197.59"/>
<polygon fill="midnightblue" stroke="midnightblue" points="183.2,-197.75 180.37,-187.54 176.21,-197.28 183.2,-197.75"/>
</g>
<!-- Node3 -->
<g id="node3" class="node">
<title>Node3</title>
<g id="a_node3"><a xlink:href="types_8h.html" target="_top" xlink:title="Enumerations, basic types and callback function specifications.">
<polygon fill="white" stroke="black" points="70,-112.5 70,-131.5 123,-131.5 123,-112.5 70,-112.5"/>
<text text-anchor="middle" x="96.5" y="-119.5" font-family="Helvetica,sans-Serif" font-size="10.00">types.h</text>
</a>
</g>
</g>
<!-- Node1&#45;&gt;Node3 -->
<g id="edge12" class="edge">
<title>Node1&#45;&gt;Node3</title>
<path fill="none" stroke="midnightblue" d="M107.71,-280.19C96.67,-272.24 82,-259.45 75.5,-244 60.89,-209.26 76.46,-164.81 87.51,-140.62"/>
<polygon fill="midnightblue" stroke="midnightblue" points="90.68,-142.11 91.86,-131.58 84.37,-139.07 90.68,-142.11"/>
</g>
<!-- Node8 -->
<g id="node8" class="node">
<title>Node8</title>
<g id="a_node8"><a xlink:href="structures_8h.html" target="_top" xlink:title="XMSS library specific structured types.">
<polygon fill="white" stroke="black" points="84.5,-224.5 84.5,-243.5 158.5,-243.5 158.5,-224.5 84.5,-224.5"/>
<text text-anchor="middle" x="121.5" y="-231.5" font-family="Helvetica,sans-Serif" font-size="10.00">structures.h</text>
</a>
</g>
</g>
<!-- Node1&#45;&gt;Node8 -->
<g id="edge8" class="edge">
<title>Node1&#45;&gt;Node8</title>
<path fill="none" stroke="midnightblue" d="M121.5,-280.08C121.5,-273.01 121.5,-262.86 121.5,-253.99"/>
<polygon fill="midnightblue" stroke="midnightblue" points="125,-253.75 121.5,-243.75 118,-253.75 125,-253.75"/>
</g>
<!-- Node2&#45;&gt;Node3 -->
<g id="edge2" class="edge">
<title>Node2&#45;&gt;Node3</title>
<path fill="none" stroke="midnightblue" d="M167,-168.32C153.9,-159.9 133.79,-146.97 118.39,-137.07"/>
<polygon fill="midnightblue" stroke="midnightblue" points="120.27,-134.12 109.96,-131.65 116.48,-140.01 120.27,-134.12"/>
</g>
<!-- Node6 -->
<g id="node6" class="node">
<title>Node6</title>
<g id="a_node6"><a xlink:href="compat_8h.html" target="_top" xlink:title="C99 compatibility layer.">
<polygon fill="white" stroke="black" points="149.5,-56.5 149.5,-75.5 211.5,-75.5 211.5,-56.5 149.5,-56.5"/>
<text text-anchor="middle" x="180.5" y="-63.5" font-family="Helvetica,sans-Serif" font-size="10.00">compat.h</text>
</a>
</g>
</g>
<!-- Node2&#45;&gt;Node6 -->
<g id="edge7" class="edge">
<title>Node2&#45;&gt;Node6</title>
<path fill="none" stroke="midnightblue" d="M180.5,-168.37C180.5,-150.62 180.5,-109.67 180.5,-85.6"/>
<polygon fill="midnightblue" stroke="midnightblue" points="184,-85.59 180.5,-75.59 177,-85.59 184,-85.59"/>
</g>
<!-- Node4 -->
<g id="node4" class="node">
<title>Node4</title>
<g id="a_node4"><a xlink:title=" ">
<polygon fill="white" stroke="#bfbfbf" points="71.5,-56.5 71.5,-75.5 127.5,-75.5 127.5,-56.5 71.5,-56.5"/>
<text text-anchor="middle" x="99.5" y="-63.5" font-family="Helvetica,sans-Serif" font-size="10.00">stddef.h</text>
</a>
</g>
</g>
<!-- Node3&#45;&gt;Node4 -->
<g id="edge3" class="edge">
<title>Node3&#45;&gt;Node4</title>
<path fill="none" stroke="midnightblue" d="M97,-112.08C97.39,-105.01 97.95,-94.86 98.45,-85.99"/>
<polygon fill="midnightblue" stroke="midnightblue" points="101.95,-85.93 99.01,-75.75 94.96,-85.54 101.95,-85.93"/>
</g>
<!-- Node5 -->
<g id="node5" class="node">
<title>Node5</title>
<g id="a_node5"><a xlink:title=" ">
<polygon fill="white" stroke="#bfbfbf" points="0,-56.5 0,-75.5 53,-75.5 53,-56.5 0,-56.5"/>
<text text-anchor="middle" x="26.5" y="-63.5" font-family="Helvetica,sans-Serif" font-size="10.00">stdint.h</text>
</a>
</g>
</g>
<!-- Node3&#45;&gt;Node5 -->
<g id="edge4" class="edge">
<title>Node3&#45;&gt;Node5</title>
<path fill="none" stroke="midnightblue" d="M85.25,-112.32C74.7,-104.18 58.7,-91.84 46.06,-82.09"/>
<polygon fill="midnightblue" stroke="midnightblue" points="48.01,-79.17 37.95,-75.83 43.73,-84.71 48.01,-79.17"/>
</g>
<!-- Node3&#45;&gt;Node6 -->
<g id="edge5" class="edge">
<title>Node3&#45;&gt;Node6</title>
<path fill="none" stroke="midnightblue" d="M110,-112.32C123.1,-103.9 143.21,-90.97 158.61,-81.07"/>
<polygon fill="midnightblue" stroke="midnightblue" points="160.52,-84.01 167.04,-75.65 156.73,-78.12 160.52,-84.01"/>
</g>
<!-- Node7 -->
<g id="node7" class="node">
<title>Node7</title>
<g id="a_node7"><a xlink:href="xmss__config_8h.html" target="_top" xlink:title="The configurable CMake options that affect the public API.">
<polygon fill="white" stroke="black" points="137.5,-0.5 137.5,-19.5 223.5,-19.5 223.5,-0.5 137.5,-0.5"/>
<text text-anchor="middle" x="180.5" y="-7.5" font-family="Helvetica,sans-Serif" font-size="10.00">xmss_config.h</text>
</a>
</g>
</g>
<!-- Node6&#45;&gt;Node7 -->
<g id="edge6" class="edge">
<title>Node6&#45;&gt;Node7</title>
<path fill="none" stroke="midnightblue" d="M180.5,-56.08C180.5,-49.01 180.5,-38.86 180.5,-29.99"/>
<polygon fill="midnightblue" stroke="midnightblue" points="184,-29.75 180.5,-19.75 177,-29.75 184,-29.75"/>
</g>
<!-- Node8&#45;&gt;Node2 -->
<g id="edge10" class="edge">
<title>Node8&#45;&gt;Node2</title>
<path fill="none" stroke="midnightblue" d="M130.98,-224.32C139.7,-216.34 152.84,-204.31 163.4,-194.65"/>
<polygon fill="midnightblue" stroke="midnightblue" points="165.83,-197.17 170.85,-187.83 161.11,-192 165.83,-197.17"/>
</g>
<!-- Node8&#45;&gt;Node3 -->
<g id="edge11" class="edge">
<title>Node8&#45;&gt;Node3</title>
<path fill="none" stroke="midnightblue" d="M119.54,-224.37C115.5,-206.62 106.2,-165.67 100.73,-141.6"/>
<polygon fill="midnightblue" stroke="midnightblue" points="104.08,-140.57 98.45,-131.59 97.26,-142.12 104.08,-140.57"/>
</g>
<!-- Node8&#45;&gt;Node6 -->
<g id="edge9" class="edge">
<title>Node8&#45;&gt;Node6</title>
<path fill="none" stroke="midnightblue" d="M158.69,-230.81C188.15,-226.89 227.56,-216.29 247.5,-188 272.82,-152.07 227.67,-105.65 199.88,-82.12"/>
<polygon fill="midnightblue" stroke="midnightblue" points="201.87,-79.22 191.92,-75.59 197.43,-84.63 201.87,-79.22"/>
</g>
</g>
</svg>
