<?xml version="1.0" encoding="UTF-8" standalone="no"?>
<!DOCTYPE svg PUBLIC "-//W3C//DTD SVG 1.1//EN"
 "http://www.w3.org/Graphics/SVG/1.1/DTD/svg11.dtd">
<!-- Generated by graphviz version 2.43.0 (0)
 -->
<!-- Title: verification.h Pages: 1 -->
<svg width="260pt" height="308pt"
 viewBox="0.00 0.00 260.44 308.00" xmlns="http://www.w3.org/2000/svg" xmlns:xlink="http://www.w3.org/1999/xlink">
<g id="graph0" class="graph" transform="scale(1 1) rotate(0) translate(4 304)">
<title>verification.h</title>
<polygon fill="white" stroke="transparent" points="-4,4 -4,-304 256.44,-304 256.44,4 -4,4"/>
<!-- Node1 -->
<g id="node1" class="node">
<title>Node1</title>
<g id="a_node1"><a xlink:title="Public API for the XMSS verification library.">
<polygon fill="#bfbfbf" stroke="black" points="95.94,-280.5 95.94,-299.5 175.94,-299.5 175.94,-280.5 95.94,-280.5"/>
<text text-anchor="middle" x="135.94" y="-287.5" font-family="Helvetica,sans-Serif" font-size="10.00">verification.h</text>
</a>
</g>
</g>
<!-- Node2 -->
<g id="node2" class="node">
<title>Node2</title>
<g id="a_node2"><a xlink:href="structures_8h.html" target="_top" xlink:title="XMSS library specific structured types.">
<polygon fill="white" stroke="black" points="66.94,-224.5 66.94,-243.5 140.94,-243.5 140.94,-224.5 66.94,-224.5"/>
<text text-anchor="middle" x="103.94" y="-231.5" font-family="Helvetica,sans-Serif" font-size="10.00">structures.h</text>
</a>
</g>
</g>
<!-- Node1&#45;&gt;Node2 -->
<g id="edge1" class="edge">
<title>Node1&#45;&gt;Node2</title>
<path fill="none" stroke="midnightblue" d="M130.66,-280.08C126.23,-272.61 119.78,-261.72 114.32,-252.52"/>
<polygon fill="midnightblue" stroke="midnightblue" points="117.24,-250.57 109.13,-243.75 111.21,-254.14 117.24,-250.57"/>
</g>
<!-- Node6 -->
<g id="node6" class="node">
<title>Node6</title>
<g id="a_node6"><a xlink:href="types_8h.html" target="_top" xlink:title="Enumerations, basic types and callback function specifications.">
<polygon fill="white" stroke="black" points="130.44,-112.5 130.44,-131.5 183.44,-131.5 183.44,-112.5 130.44,-112.5"/>
<text text-anchor="middle" x="156.94" y="-119.5" font-family="Helvetica,sans-Serif" font-size="10.00">types.h</text>
</a>
</g>
</g>
<!-- Node1&#45;&gt;Node6 -->
<g id="edge11" class="edge">
<title>Node1&#45;&gt;Node6</title>
<path fill="none" stroke="midnightblue" d="M139.04,-280.48C142.19,-271.52 147.02,-256.93 149.94,-244 155.47,-219.47 156.16,-213.08 157.94,-188 158.57,-179.13 158.04,-176.89 157.94,-168 157.84,-159.4 157.65,-149.87 157.45,-141.8"/>
<polygon fill="midnightblue" stroke="midnightblue" points="160.95,-141.53 157.19,-131.63 153.95,-141.71 160.95,-141.53"/>
</g>
<!-- Node3 -->
<g id="node3" class="node">
<title>Node3</title>
<g id="a_node3"><a xlink:href="compat_8h.html" target="_top" xlink:title="C99 compatibility layer.">
<polygon fill="white" stroke="black" points="42.94,-56.5 42.94,-75.5 104.94,-75.5 104.94,-56.5 42.94,-56.5"/>
<text text-anchor="middle" x="73.94" y="-63.5" font-family="Helvetica,sans-Serif" font-size="10.00">compat.h</text>
</a>
</g>
</g>
<!-- Node2&#45;&gt;Node3 -->
<g id="edge2" class="edge">
<title>Node2&#45;&gt;Node3</title>
<path fill="none" stroke="midnightblue" d="M66.51,-225.95C45.12,-219.8 20.03,-208.5 6.94,-188 -16.6,-151.13 27.28,-105.47 54.56,-82.19"/>
<polygon fill="midnightblue" stroke="midnightblue" points="56.91,-84.79 62.39,-75.72 52.45,-79.39 56.91,-84.79"/>
</g>
<!-- Node5 -->
<g id="node5" class="node">
<title>Node5</title>
<g id="a_node5"><a xlink:href="opaque__structures_8h.html" target="_top" xlink:title="Public definitions of opaque structures and memory management calls for those.">
<polygon fill="white" stroke="black" points="15.94,-168.5 15.94,-187.5 131.94,-187.5 131.94,-168.5 15.94,-168.5"/>
<text text-anchor="middle" x="73.94" y="-175.5" font-family="Helvetica,sans-Serif" font-size="10.00">opaque_structures.h</text>
</a>
</g>
</g>
<!-- Node2&#45;&gt;Node5 -->
<g id="edge4" class="edge">
<title>Node2&#45;&gt;Node5</title>
<path fill="none" stroke="midnightblue" d="M98.99,-224.08C94.84,-216.61 88.79,-205.72 83.67,-196.52"/>
<polygon fill="midnightblue" stroke="midnightblue" points="86.72,-194.79 78.8,-187.75 80.6,-198.19 86.72,-194.79"/>
</g>
<!-- Node2&#45;&gt;Node6 -->
<g id="edge10" class="edge">
<title>Node2&#45;&gt;Node6</title>
<path fill="none" stroke="midnightblue" d="M113.23,-224.22C121.68,-215.73 133.87,-202.1 140.94,-188 148.27,-173.39 152.37,-155.22 154.58,-141.81"/>
<polygon fill="midnightblue" stroke="midnightblue" points="158.06,-142.24 156.03,-131.84 151.13,-141.24 158.06,-142.24"/>
</g>
<!-- Node4 -->
<g id="node4" class="node">
<title>Node4</title>
<g id="a_node4"><a xlink:href="xmss__config_8h.html" target="_top" xlink:title="The configurable CMake options that affect the public API.">
<polygon fill="white" stroke="black" points="30.94,-0.5 30.94,-19.5 116.94,-19.5 116.94,-0.5 30.94,-0.5"/>
<text text-anchor="middle" x="73.94" y="-7.5" font-family="Helvetica,sans-Serif" font-size="10.00">xmss_config.h</text>
</a>
</g>
</g>
<!-- Node3&#45;&gt;Node4 -->
<g id="edge3" class="edge">
<title>Node3&#45;&gt;Node4</title>
<path fill="none" stroke="midnightblue" d="M73.94,-56.08C73.94,-49.01 73.94,-38.86 73.94,-29.99"/>
<polygon fill="midnightblue" stroke="midnightblue" points="77.44,-29.75 73.94,-19.75 70.44,-29.75 77.44,-29.75"/>
</g>
<!-- Node5&#45;&gt;Node3 -->
<g id="edge9" class="edge">
<title>Node5&#45;&gt;Node3</title>
<path fill="none" stroke="midnightblue" d="M73.94,-168.37C73.94,-150.62 73.94,-109.67 73.94,-85.6"/>
<polygon fill="midnightblue" stroke="midnightblue" points="77.44,-85.59 73.94,-75.59 70.44,-85.59 77.44,-85.59"/>
</g>
<!-- Node5&#45;&gt;Node6 -->
<g id="edge5" class="edge">
<title>Node5&#45;&gt;Node6</title>
<path fill="none" stroke="midnightblue" d="M87.28,-168.32C100.1,-159.98 119.73,-147.21 134.88,-137.35"/>
<polygon fill="midnightblue" stroke="midnightblue" points="137.16,-140.04 143.64,-131.65 133.35,-134.17 137.16,-140.04"/>
</g>
<!-- Node6&#45;&gt;Node3 -->
<g id="edge8" class="edge">
<title>Node6&#45;&gt;Node3</title>
<path fill="none" stroke="midnightblue" d="M143.6,-112.32C130.78,-103.98 111.16,-91.21 96,-81.35"/>
<polygon fill="midnightblue" stroke="midnightblue" points="97.53,-78.17 87.24,-75.65 93.72,-84.04 97.53,-78.17"/>
</g>
<!-- Node7 -->
<g id="node7" class="node">
<title>Node7</title>
<g id="a_node7"><a xlink:title=" ">
<polygon fill="white" stroke="#bfbfbf" points="124.94,-56.5 124.94,-75.5 180.94,-75.5 180.94,-56.5 124.94,-56.5"/>
<text text-anchor="middle" x="152.94" y="-63.5" font-family="Helvetica,sans-Serif" font-size="10.00">stddef.h</text>
</a>
</g>
</g>
<!-- Node6&#45;&gt;Node7 -->
<g id="edge6" class="edge">
<title>Node6&#45;&gt;Node7</title>
<path fill="none" stroke="midnightblue" d="M156.28,-112.08C155.76,-105.01 155,-94.86 154.35,-85.99"/>
<polygon fill="midnightblue" stroke="midnightblue" points="157.82,-85.47 153.59,-75.75 150.84,-85.98 157.82,-85.47"/>
</g>
<!-- Node8 -->
<g id="node8" class="node">
<title>Node8</title>
<g id="a_node8"><a xlink:title=" ">
<polygon fill="white" stroke="#bfbfbf" points="199.44,-56.5 199.44,-75.5 252.44,-75.5 252.44,-56.5 199.44,-56.5"/>
<text text-anchor="middle" x="225.94" y="-63.5" font-family="Helvetica,sans-Serif" font-size="10.00">stdint.h</text>
</a>
</g>
</g>
<!-- Node6&#45;&gt;Node8 -->
<g id="edge7" class="edge">
<title>Node6&#45;&gt;Node8</title>
<path fill="none" stroke="midnightblue" d="M168.03,-112.32C178.43,-104.18 194.2,-91.84 206.66,-82.09"/>
<polygon fill="midnightblue" stroke="midnightblue" points="208.93,-84.75 214.65,-75.83 204.62,-79.24 208.93,-84.75"/>
</g>
</g>
</svg>
