<?xml version="1.0" encoding="UTF-8" standalone="no"?>
<!DOCTYPE svg PUBLIC "-//W3C//DTD SVG 1.1//EN"
 "http://www.w3.org/Graphics/SVG/1.1/DTD/svg11.dtd">
<!-- Generated by graphviz version 2.43.0 (0)
 -->
<!-- Title: version.h Pages: 1 -->
<svg width="154pt" height="140pt"
 viewBox="0.00 0.00 153.59 140.00" xmlns="http://www.w3.org/2000/svg" xmlns:xlink="http://www.w3.org/1999/xlink">
<g id="graph0" class="graph" transform="scale(1 1) rotate(0) translate(4 136)">
<title>version.h</title>
<polygon fill="white" stroke="transparent" points="-4,4 -4,-136 149.59,-136 149.59,4 -4,4"/>
<!-- Node1 -->
<g id="node1" class="node">
<title>Node1</title>
<g id="a_node1"><a xlink:title="Public API for XMSS library version control.">
<polygon fill="#bfbfbf" stroke="black" points="7.59,-112.5 7.59,-131.5 69.59,-131.5 69.59,-112.5 7.59,-112.5"/>
<text text-anchor="middle" x="38.59" y="-119.5" font-family="Helvetica,sans-Serif" font-size="10.00">version.h</text>
</a>
</g>
</g>
<!-- Node2 -->
<g id="node2" class="node">
<title>Node2</title>
<g id="a_node2"><a xlink:href="xmss__config_8h.html" target="_top" xlink:title="The configurable CMake options that affect the public API.">
<polygon fill="white" stroke="black" points="5.59,-0.5 5.59,-19.5 91.59,-19.5 91.59,-0.5 5.59,-0.5"/>
<text text-anchor="middle" x="48.59" y="-7.5" font-family="Helvetica,sans-Serif" font-size="10.00">xmss_config.h</text>
</a>
</g>
</g>
<!-- Node1&#45;&gt;Node2 -->
<g id="edge1" class="edge">
<title>Node1&#45;&gt;Node2</title>
<path fill="none" stroke="midnightblue" d="M28.12,-112.47C14.57,-100.32 -6.31,-77.17 2.59,-56 7.62,-44.05 17.53,-33.69 26.88,-25.93"/>
<polygon fill="midnightblue" stroke="midnightblue" points="29.03,-28.69 34.8,-19.81 24.75,-23.15 29.03,-28.69"/>
</g>
<!-- Node3 -->
<g id="node3" class="node">
<title>Node3</title>
<g id="a_node3"><a xlink:title=" ">
<polygon fill="white" stroke="#bfbfbf" points="12.09,-56.5 12.09,-75.5 65.09,-75.5 65.09,-56.5 12.09,-56.5"/>
<text text-anchor="middle" x="38.59" y="-63.5" font-family="Helvetica,sans-Serif" font-size="10.00">stdint.h</text>
</a>
</g>
</g>
<!-- Node1&#45;&gt;Node3 -->
<g id="edge2" class="edge">
<title>Node1&#45;&gt;Node3</title>
<path fill="none" stroke="midnightblue" d="M38.59,-112.08C38.59,-105.01 38.59,-94.86 38.59,-85.99"/>
<polygon fill="midnightblue" stroke="midnightblue" points="42.09,-85.75 38.59,-75.75 35.09,-85.75 42.09,-85.75"/>
</g>
<!-- Node4 -->
<g id="node4" class="node">
<title>Node4</title>
<g id="a_node4"><a xlink:href="compat_8h.html" target="_top" xlink:title="C99 compatibility layer.">
<polygon fill="white" stroke="black" points="83.59,-56.5 83.59,-75.5 145.59,-75.5 145.59,-56.5 83.59,-56.5"/>
<text text-anchor="middle" x="114.59" y="-63.5" font-family="Helvetica,sans-Serif" font-size="10.00">compat.h</text>
</a>
</g>
</g>
<!-- Node1&#45;&gt;Node4 -->
<g id="edge3" class="edge">
<title>Node1&#45;&gt;Node4</title>
<path fill="none" stroke="midnightblue" d="M50.8,-112.32C62.37,-104.11 79.97,-91.6 93.75,-81.81"/>
<polygon fill="midnightblue" stroke="midnightblue" points="96.03,-84.48 102.16,-75.83 91.98,-78.77 96.03,-84.48"/>
</g>
<!-- Node4&#45;&gt;Node2 -->
<g id="edge4" class="edge">
<title>Node4&#45;&gt;Node2</title>
<path fill="none" stroke="midnightblue" d="M103.99,-56.32C94.13,-48.26 79.24,-36.08 67.38,-26.37"/>
<polygon fill="midnightblue" stroke="midnightblue" points="69.34,-23.46 59.39,-19.83 64.91,-28.88 69.34,-23.46"/>
</g>
</g>
</svg>
