<?xml version="1.0" encoding="UTF-8" standalone="no"?>
<!DOCTYPE svg PUBLIC "-//W3C//DTD SVG 1.1//EN"
 "http://www.w3.org/Graphics/SVG/1.1/DTD/svg11.dtd">
<!-- Generated by graphviz version 2.43.0 (0)
 -->
<!-- Title: xmss_config.h Pages: 1 -->
<svg width="995pt" height="319pt"
 viewBox="0.00 0.00 994.98 319.00" xmlns="http://www.w3.org/2000/svg" xmlns:xlink="http://www.w3.org/1999/xlink">
<g id="graph0" class="graph" transform="scale(1 1) rotate(0) translate(4 315)">
<title>xmss_config.h</title>
<polygon fill="white" stroke="transparent" points="-4,4 -4,-315 990.98,-315 990.98,4 -4,4"/>
<!-- Node1 -->
<g id="node1" class="node">
<title>Node1</title>
<g id="a_node1"><a xlink:title="The configurable CMake options that affect the public API.">
<polygon fill="#bfbfbf" stroke="black" points="868.45,-291.5 868.45,-310.5 954.45,-310.5 954.45,-291.5 868.45,-291.5"/>
<text text-anchor="middle" x="911.45" y="-298.5" font-family="Helvetica,sans-Serif" font-size="10.00">xmss_config.h</text>
</a>
</g>
</g>
<!-- Node2 -->
<g id="node2" class="node">
<title>Node2</title>
<g id="a_node2"><a xlink:href="compat_8h.html" target="_top" xlink:title="C99 compatibility layer.">
<polygon fill="white" stroke="black" points="880.45,-235.5 880.45,-254.5 942.45,-254.5 942.45,-235.5 880.45,-235.5"/>
<text text-anchor="middle" x="911.45" y="-242.5" font-family="Helvetica,sans-Serif" font-size="10.00">compat.h</text>
</a>
</g>
</g>
<!-- Node1&#45;&gt;Node2 -->
<g id="edge1" class="edge">
<title>Node1&#45;&gt;Node2</title>
<path fill="none" stroke="midnightblue" d="M911.45,-280.8C911.45,-271.91 911.45,-261.78 911.45,-254.75"/>
<polygon fill="midnightblue" stroke="midnightblue" points="907.95,-281.08 911.45,-291.08 914.95,-281.08 907.95,-281.08"/>
</g>
<!-- Node3 -->
<g id="node3" class="node">
<title>Node3</title>
<g id="a_node3"><a xlink:href="opaque__structures_8h.html" target="_top" xlink:title="Public definitions of opaque structures and memory management calls for those.">
<polygon fill="white" stroke="black" points="853.45,-118 853.45,-137 969.45,-137 969.45,-118 853.45,-118"/>
<text text-anchor="middle" x="911.45" y="-125" font-family="Helvetica,sans-Serif" font-size="10.00">opaque_structures.h</text>
</a>
</g>
</g>
<!-- Node2&#45;&gt;Node3 -->
<g id="edge2" class="edge">
<title>Node2&#45;&gt;Node3</title>
<path fill="none" stroke="midnightblue" d="M911.45,-225.16C911.45,-199.87 911.45,-155.94 911.45,-137.28"/>
<polygon fill="midnightblue" stroke="midnightblue" points="907.95,-225.32 911.45,-235.32 914.95,-225.32 907.95,-225.32"/>
</g>
<!-- Node4 -->
<g id="node4" class="node">
<title>Node4</title>
<g id="a_node4"><a xlink:href="structures_8h.html" target="_top" xlink:title="XMSS library specific structured types.">
<polygon fill="white" stroke="black" points="815.45,-56.5 815.45,-75.5 889.45,-75.5 889.45,-56.5 815.45,-56.5"/>
<text text-anchor="middle" x="852.45" y="-63.5" font-family="Helvetica,sans-Serif" font-size="10.00">structures.h</text>
</a>
</g>
</g>
<!-- Node2&#45;&gt;Node4 -->
<g id="edge6" class="edge">
<title>Node2&#45;&gt;Node4</title>
<path fill="none" stroke="midnightblue" d="M929.65,-228.79C957.84,-203.38 1006.07,-151.2 978.45,-112 958.51,-83.71 919.1,-73.11 889.63,-69.19"/>
<polygon fill="midnightblue" stroke="midnightblue" points="927.2,-226.28 921.98,-235.5 931.81,-231.55 927.2,-226.28"/>
</g>
<!-- Node7 -->
<g id="node7" class="node">
<title>Node7</title>
<g id="a_node7"><a xlink:href="types_8h.html" target="_top" xlink:title="Enumerations, basic types and callback function specifications.">
<polygon fill="white" stroke="black" points="591.95,-179.5 591.95,-198.5 644.95,-198.5 644.95,-179.5 591.95,-179.5"/>
<text text-anchor="middle" x="618.45" y="-186.5" font-family="Helvetica,sans-Serif" font-size="10.00">types.h</text>
</a>
</g>
</g>
<!-- Node2&#45;&gt;Node7 -->
<g id="edge7" class="edge">
<title>Node2&#45;&gt;Node7</title>
<path fill="none" stroke="midnightblue" d="M870.34,-236.42C809.4,-225.19 696.8,-204.44 645.35,-194.96"/>
<polygon fill="midnightblue" stroke="midnightblue" points="869.9,-239.9 880.37,-238.27 871.17,-233.02 869.9,-239.9"/>
</g>
<!-- Node3&#45;&gt;Node4 -->
<g id="edge3" class="edge">
<title>Node3&#45;&gt;Node4</title>
<path fill="none" stroke="midnightblue" d="M895.9,-110.82C884.7,-99.52 869.99,-84.69 860.89,-75.51"/>
<polygon fill="midnightblue" stroke="midnightblue" points="893.47,-113.34 902.99,-117.98 898.44,-108.41 893.47,-113.34"/>
</g>
<!-- Node5 -->
<g id="node5" class="node">
<title>Node5</title>
<g id="a_node5"><a xlink:href="signing_8h.html" target="_top" xlink:title="Public API for the XMSS signing library.">
<polygon fill="white" stroke="black" points="350.95,-0.5 350.95,-19.5 411.95,-19.5 411.95,-0.5 350.95,-0.5"/>
<text text-anchor="middle" x="381.45" y="-7.5" font-family="Helvetica,sans-Serif" font-size="10.00">signing.h</text>
</a>
</g>
</g>
<!-- Node4&#45;&gt;Node5 -->
<g id="edge4" class="edge">
<title>Node4&#45;&gt;Node5</title>
<path fill="none" stroke="midnightblue" d="M805.06,-59.57C708.75,-48.53 492.5,-23.73 412.22,-14.53"/>
<polygon fill="midnightblue" stroke="midnightblue" points="804.76,-63.06 815.1,-60.72 805.56,-56.1 804.76,-63.06"/>
</g>
<!-- Node6 -->
<g id="node6" class="node">
<title>Node6</title>
<g id="a_node6"><a xlink:href="verification_8h.html" target="_top" xlink:title="Public API for the XMSS verification library.">
<polygon fill="white" stroke="black" points="779.45,-0.5 779.45,-19.5 859.45,-19.5 859.45,-0.5 779.45,-0.5"/>
<text text-anchor="middle" x="819.45" y="-7.5" font-family="Helvetica,sans-Serif" font-size="10.00">verification.h</text>
</a>
</g>
</g>
<!-- Node4&#45;&gt;Node6 -->
<g id="edge5" class="edge">
<title>Node4&#45;&gt;Node6</title>
<path fill="none" stroke="midnightblue" d="M841.62,-47.27C835.98,-38.05 829.33,-27.17 824.8,-19.75"/>
<polygon fill="midnightblue" stroke="midnightblue" points="838.8,-49.38 847,-56.08 844.77,-45.73 838.8,-49.38"/>
</g>
<!-- Node7&#45;&gt;Node3 -->
<g id="edge9" class="edge">
<title>Node7&#45;&gt;Node3</title>
<path fill="none" stroke="midnightblue" d="M654.88,-180.6C709.35,-169.54 811.77,-148.74 869.36,-137.05"/>
<polygon fill="midnightblue" stroke="midnightblue" points="654.07,-177.19 644.97,-182.61 655.46,-184.05 654.07,-177.19"/>
</g>
<!-- Node7&#45;&gt;Node4 -->
<g id="edge15" class="edge">
<title>Node7&#45;&gt;Node4</title>
<path fill="none" stroke="midnightblue" d="M655.35,-186.66C694.77,-183.57 757.49,-173.75 801.45,-143 826.45,-125.51 842.63,-91.51 849.17,-75.6"/>
<polygon fill="midnightblue" stroke="midnightblue" points="654.87,-183.18 645.13,-187.35 655.35,-190.17 654.87,-183.18"/>
</g>
<!-- Node7&#45;&gt;Node5 -->
<g id="edge14" class="edge">
<title>Node7&#45;&gt;Node5</title>
<path fill="none" stroke="midnightblue" d="M581.39,-188.08C456.52,-187.95 56.76,-184.3 18.45,-143 -80.18,-36.69 246.84,-15.8 350.78,-11.87"/>
<polygon fill="midnightblue" stroke="midnightblue" points="581.59,-191.58 591.6,-188.08 581.6,-184.58 581.59,-191.58"/>
</g>
<!-- Node7&#45;&gt;Node6 -->
<g id="edge16" class="edge">
<title>Node7&#45;&gt;Node6</title>
<path fill="none" stroke="midnightblue" d="M655.5,-185.9C688.93,-182.11 737.48,-171.66 768.45,-143 778.09,-134.07 807.25,-47.83 816.56,-19.77"/>
<polygon fill="midnightblue" stroke="midnightblue" points="654.82,-182.44 645.21,-186.9 655.51,-189.41 654.82,-182.44"/>
</g>
<!-- Node8 -->
<g id="node8" class="node">
<title>Node8</title>
<g id="a_node8"><a xlink:href="generic__digest_8h.html" target="_top" xlink:title="Abstract typedefs for hash function overrides using the generic interface.">
<polygon fill="white" stroke="black" points="27.95,-118 27.95,-137 124.95,-137 124.95,-118 27.95,-118"/>
<text text-anchor="middle" x="76.45" y="-125" font-family="Helvetica,sans-Serif" font-size="10.00">generic_digest.h</text>
</a>
</g>
</g>
<!-- Node7&#45;&gt;Node8 -->
<g id="edge8" class="edge">
<title>Node7&#45;&gt;Node8</title>
<path fill="none" stroke="midnightblue" d="M581.55,-186.49C500.28,-182.74 299.85,-171.2 134.45,-143 125.44,-141.47 115.78,-139.27 106.97,-137.05"/>
<polygon fill="midnightblue" stroke="midnightblue" points="581.62,-189.99 591.77,-186.95 581.93,-183 581.62,-189.99"/>
</g>
<!-- Node9 -->
<g id="node9" class="node">
<title>Node9</title>
<g id="a_node9"><a xlink:href="override__sha256__generic_8h.html" target="_top" xlink:title="Prototypes for the SHA&#45;256 hash function override using the generic interface.">
<polygon fill="white" stroke="black" points="143.45,-118 143.45,-137 291.45,-137 291.45,-118 143.45,-118"/>
<text text-anchor="middle" x="217.45" y="-125" font-family="Helvetica,sans-Serif" font-size="10.00">override_sha256_generic.h</text>
</a>
</g>
</g>
<!-- Node7&#45;&gt;Node9 -->
<g id="edge10" class="edge">
<title>Node7&#45;&gt;Node9</title>
<path fill="none" stroke="midnightblue" d="M581.6,-183.18C522.29,-175.33 402.02,-159.05 300.45,-143 288.89,-141.17 276.45,-139.07 264.81,-137.05"/>
<polygon fill="midnightblue" stroke="midnightblue" points="581.23,-186.66 591.6,-184.5 582.15,-179.72 581.23,-186.66"/>
</g>
<!-- Node10 -->
<g id="node10" class="node">
<title>Node10</title>
<g id="a_node10"><a xlink:href="override__sha256__internal_8h.html" target="_top" xlink:title="Prototype for the SHA&#45;256 hash function override using the internal interface.">
<polygon fill="white" stroke="black" points="309.95,-118 309.95,-137 458.95,-137 458.95,-118 309.95,-118"/>
<text text-anchor="middle" x="384.45" y="-125" font-family="Helvetica,sans-Serif" font-size="10.00">override_sha256_internal.h</text>
</a>
</g>
</g>
<!-- Node7&#45;&gt;Node10 -->
<g id="edge11" class="edge">
<title>Node7&#45;&gt;Node10</title>
<path fill="none" stroke="midnightblue" d="M581.7,-178.66C536.83,-167.25 461.56,-148.11 418.13,-137.06"/>
<polygon fill="midnightblue" stroke="midnightblue" points="581.05,-182.1 591.61,-181.17 582.78,-175.32 581.05,-182.1"/>
</g>
<!-- Node11 -->
<g id="node11" class="node">
<title>Node11</title>
<g id="a_node11"><a xlink:href="override__shake256__256__generic_8h.html" target="_top" xlink:title="Prototypes for the SHAKE256/256 hash function override using the generic interface.">
<polygon fill="white" stroke="black" points="477.45,-112.5 477.45,-142.5 609.45,-142.5 609.45,-112.5 477.45,-112.5"/>
<text text-anchor="start" x="485.45" y="-130.5" font-family="Helvetica,sans-Serif" font-size="10.00">override_shake256_256</text>
<text text-anchor="middle" x="543.45" y="-119.5" font-family="Helvetica,sans-Serif" font-size="10.00">_generic.h</text>
</a>
</g>
</g>
<!-- Node7&#45;&gt;Node11 -->
<g id="edge12" class="edge">
<title>Node7&#45;&gt;Node11</title>
<path fill="none" stroke="midnightblue" d="M599.79,-173.2C587.96,-163.81 572.76,-151.75 561.12,-142.52"/>
<polygon fill="midnightblue" stroke="midnightblue" points="597.69,-176 607.7,-179.48 602.04,-170.52 597.69,-176"/>
</g>
<!-- Node12 -->
<g id="node12" class="node">
<title>Node12</title>
<g id="a_node12"><a xlink:href="override__shake256__256__internal_8h.html" target="_top" xlink:title="Prototypes for the SHAKE256/256 hash function override using the internal interface.">
<polygon fill="white" stroke="black" points="627.45,-112.5 627.45,-142.5 759.45,-142.5 759.45,-112.5 627.45,-112.5"/>
<text text-anchor="start" x="635.45" y="-130.5" font-family="Helvetica,sans-Serif" font-size="10.00">override_shake256_256</text>
<text text-anchor="middle" x="693.45" y="-119.5" font-family="Helvetica,sans-Serif" font-size="10.00">_internal.h</text>
</a>
</g>
</g>
<!-- Node7&#45;&gt;Node12 -->
<g id="edge13" class="edge">
<title>Node7&#45;&gt;Node12</title>
<path fill="none" stroke="midnightblue" d="M637.11,-173.2C648.94,-163.81 664.14,-151.75 675.77,-142.52"/>
<polygon fill="midnightblue" stroke="midnightblue" points="634.85,-170.52 629.19,-179.48 639.2,-176 634.85,-170.52"/>
</g>
</g>
</svg>
