<?xml version="1.0" encoding="UTF-8" standalone="no"?>
<!DOCTYPE svg PUBLIC "-//W3C//DTD SVG 1.1//EN"
 "http://www.w3.org/Graphics/SVG/1.1/DTD/svg11.dtd">
<!-- Generated by graphviz version 2.43.0 (0)
 -->
<!-- Title: xmss_config.h Pages: 1 -->
<svg width="1140pt" height="319pt"
 viewBox="0.00 0.00 1140.00 319.00" xmlns="http://www.w3.org/2000/svg" xmlns:xlink="http://www.w3.org/1999/xlink">
<g id="graph0" class="graph" transform="scale(1 1) rotate(0) translate(4 315)">
<title>xmss_config.h</title>
<polygon fill="white" stroke="transparent" points="-4,4 -4,-315 1136,-315 1136,4 -4,4"/>
<!-- Node1 -->
<g id="node1" class="node">
<title>Node1</title>
<g id="a_node1"><a xlink:title="The configurable CMake options that affect the public API.">
<polygon fill="#bfbfbf" stroke="black" points="1028,-291.5 1028,-310.5 1114,-310.5 1114,-291.5 1028,-291.5"/>
<text text-anchor="middle" x="1071" y="-298.5" font-family="Helvetica,sans-Serif" font-size="10.00">xmss_config.h</text>
</a>
</g>
</g>
<!-- Node2 -->
<g id="node2" class="node">
<title>Node2</title>
<g id="a_node2"><a xlink:href="compat_8h.html" target="_top" xlink:title="C99 compatibility layer.">
<polygon fill="white" stroke="black" points="1011,-235.5 1011,-254.5 1073,-254.5 1073,-235.5 1011,-235.5"/>
<text text-anchor="middle" x="1042" y="-242.5" font-family="Helvetica,sans-Serif" font-size="10.00">compat.h</text>
</a>
</g>
</g>
<!-- Node1&#45;&gt;Node2 -->
<g id="edge1" class="edge">
<title>Node1&#45;&gt;Node2</title>
<path fill="none" stroke="midnightblue" d="M1061.32,-281.98C1056.4,-272.82 1050.64,-262.09 1046.7,-254.75"/>
<polygon fill="midnightblue" stroke="midnightblue" points="1058.4,-283.93 1066.21,-291.08 1064.56,-280.62 1058.4,-283.93"/>
</g>
<!-- Node14 -->
<g id="node14" class="node">
<title>Node14</title>
<g id="a_node14"><a xlink:href="version_8h.html" target="_top" xlink:title="Public API for XMSS library version control.">
<polygon fill="white" stroke="black" points="1070,-179.5 1070,-198.5 1132,-198.5 1132,-179.5 1070,-179.5"/>
<text text-anchor="middle" x="1101" y="-186.5" font-family="Helvetica,sans-Serif" font-size="10.00">version.h</text>
</a>
</g>
</g>
<!-- Node1&#45;&gt;Node14 -->
<g id="edge20" class="edge">
<title>Node1&#45;&gt;Node14</title>
<path fill="none" stroke="midnightblue" d="M1076,-281.67C1082.56,-257.62 1093.8,-216.39 1098.66,-198.59"/>
<polygon fill="midnightblue" stroke="midnightblue" points="1072.61,-280.8 1073.35,-291.37 1079.36,-282.64 1072.61,-280.8"/>
</g>
<!-- Node3 -->
<g id="node3" class="node">
<title>Node3</title>
<g id="a_node3"><a xlink:href="opaque__structures_8h.html" target="_top" xlink:title="Public definitions of opaque structures and memory management calls for those.">
<polygon fill="white" stroke="black" points="0,-118 0,-137 116,-137 116,-118 0,-118"/>
<text text-anchor="middle" x="58" y="-125" font-family="Helvetica,sans-Serif" font-size="10.00">opaque_structures.h</text>
</a>
</g>
</g>
<!-- Node2&#45;&gt;Node3 -->
<g id="edge2" class="edge">
<title>Node2&#45;&gt;Node3</title>
<path fill="none" stroke="midnightblue" d="M1000.53,-240.72C871.23,-230.22 464.14,-195.04 130,-143 119.29,-141.33 107.76,-139.17 97.12,-137.03"/>
<polygon fill="midnightblue" stroke="midnightblue" points="1000.52,-244.23 1010.77,-241.55 1001.08,-237.26 1000.52,-244.23"/>
</g>
<!-- Node4 -->
<g id="node4" class="node">
<title>Node4</title>
<g id="a_node4"><a xlink:href="structures_8h.html" target="_top" xlink:title="XMSS library specific structured types.">
<polygon fill="white" stroke="black" points="895,-56.5 895,-75.5 969,-75.5 969,-56.5 895,-56.5"/>
<text text-anchor="middle" x="932" y="-63.5" font-family="Helvetica,sans-Serif" font-size="10.00">structures.h</text>
</a>
</g>
</g>
<!-- Node2&#45;&gt;Node4 -->
<g id="edge7" class="edge">
<title>Node2&#45;&gt;Node4</title>
<path fill="none" stroke="midnightblue" d="M1044.43,-225.04C1046.91,-197.44 1047.49,-145.79 1023,-112 1009.66,-93.59 986.65,-82.31 967.11,-75.65"/>
<polygon fill="midnightblue" stroke="midnightblue" points="1040.92,-224.96 1043.31,-235.28 1047.87,-225.72 1040.92,-224.96"/>
</g>
<!-- Node7 -->
<g id="node7" class="node">
<title>Node7</title>
<g id="a_node7"><a xlink:href="types_8h.html" target="_top" xlink:title="Enumerations, basic types and callback function specifications.">
<polygon fill="white" stroke="black" points="661.5,-179.5 661.5,-198.5 714.5,-198.5 714.5,-179.5 661.5,-179.5"/>
<text text-anchor="middle" x="688" y="-186.5" font-family="Helvetica,sans-Serif" font-size="10.00">types.h</text>
</a>
</g>
</g>
<!-- Node2&#45;&gt;Node7 -->
<g id="edge8" class="edge">
<title>Node2&#45;&gt;Node7</title>
<path fill="none" stroke="midnightblue" d="M1000.63,-237.69C927.11,-226.48 775.68,-203.38 714.51,-194.04"/>
<polygon fill="midnightblue" stroke="midnightblue" points="1000.48,-241.21 1010.9,-239.26 1001.54,-234.29 1000.48,-241.21"/>
</g>
<!-- Node2&#45;&gt;Node14 -->
<g id="edge19" class="edge">
<title>Node2&#45;&gt;Node14</title>
<path fill="none" stroke="midnightblue" d="M1058.89,-228.54C1069.41,-218.91 1082.57,-206.87 1091.35,-198.83"/>
<polygon fill="midnightblue" stroke="midnightblue" points="1056.49,-225.99 1051.48,-235.32 1061.22,-231.15 1056.49,-225.99"/>
</g>
<!-- Node3&#45;&gt;Node4 -->
<g id="edge3" class="edge">
<title>Node3&#45;&gt;Node4</title>
<path fill="none" stroke="midnightblue" d="M123.98,-116.58C136.89,-114.87 150.36,-113.24 163,-112 443.5,-84.47 783.33,-71.77 894.71,-68.14"/>
<polygon fill="midnightblue" stroke="midnightblue" points="123.2,-113.15 113.76,-117.97 124.14,-120.09 123.2,-113.15"/>
</g>
<!-- Node6 -->
<g id="node6" class="node">
<title>Node6</title>
<g id="a_node6"><a xlink:href="verification_8h.html" target="_top" xlink:title="Public API for the XMSS verification library.">
<polygon fill="white" stroke="black" points="104,-0.5 104,-19.5 184,-19.5 184,-0.5 104,-0.5"/>
<text text-anchor="middle" x="144" y="-7.5" font-family="Helvetica,sans-Serif" font-size="10.00">verification.h</text>
</a>
</g>
</g>
<!-- Node3&#45;&gt;Node6 -->
<g id="edge6" class="edge">
<title>Node3&#45;&gt;Node6</title>
<path fill="none" stroke="midnightblue" d="M70.53,-109.67C89.08,-84.76 123.2,-38.94 137.46,-19.78"/>
<polygon fill="midnightblue" stroke="midnightblue" points="67.63,-107.71 64.46,-117.82 73.24,-111.89 67.63,-107.71"/>
</g>
<!-- Node5 -->
<g id="node5" class="node">
<title>Node5</title>
<g id="a_node5"><a xlink:href="signing_8h.html" target="_top" xlink:title="Public API for the XMSS signing library.">
<polygon fill="white" stroke="black" points="975.5,-0.5 975.5,-19.5 1036.5,-19.5 1036.5,-0.5 975.5,-0.5"/>
<text text-anchor="middle" x="1006" y="-7.5" font-family="Helvetica,sans-Serif" font-size="10.00">signing.h</text>
</a>
</g>
</g>
<!-- Node4&#45;&gt;Node5 -->
<g id="edge4" class="edge">
<title>Node4&#45;&gt;Node5</title>
<path fill="none" stroke="midnightblue" d="M952.03,-50.38C965.41,-40.62 982.56,-28.11 993.89,-19.83"/>
<polygon fill="midnightblue" stroke="midnightblue" points="949.9,-47.6 943.89,-56.32 954.03,-53.26 949.9,-47.6"/>
</g>
<!-- Node4&#45;&gt;Node6 -->
<g id="edge5" class="edge">
<title>Node4&#45;&gt;Node6</title>
<path fill="none" stroke="midnightblue" d="M884.6,-61.75C741.7,-51.96 316.81,-22.84 184.08,-13.75"/>
<polygon fill="midnightblue" stroke="midnightblue" points="884.57,-65.26 894.79,-62.45 885.05,-58.27 884.57,-65.26"/>
</g>
<!-- Node7&#45;&gt;Node3 -->
<g id="edge11" class="edge">
<title>Node7&#45;&gt;Node3</title>
<path fill="none" stroke="midnightblue" d="M651.27,-186.54C561.76,-182.66 325.37,-170.45 130,-143 118.89,-141.44 106.91,-139.24 95.97,-137.02"/>
<polygon fill="midnightblue" stroke="midnightblue" points="651.31,-190.05 661.45,-186.97 651.6,-183.05 651.31,-190.05"/>
</g>
<!-- Node7&#45;&gt;Node4 -->
<g id="edge17" class="edge">
<title>Node7&#45;&gt;Node4</title>
<path fill="none" stroke="midnightblue" d="M724.61,-185.37C781.26,-180.54 886.4,-168.36 913,-143 931.8,-125.07 933.12,-91.59 932.58,-75.74"/>
<polygon fill="midnightblue" stroke="midnightblue" points="724.31,-181.88 714.63,-186.18 724.88,-188.86 724.31,-181.88"/>
</g>
<!-- Node7&#45;&gt;Node5 -->
<g id="edge16" class="edge">
<title>Node7&#45;&gt;Node5</title>
<path fill="none" stroke="midnightblue" d="M725.12,-188.84C804.08,-189.75 984.63,-186.87 1023,-143 1054.49,-107 1023.94,-42.91 1011.09,-19.7"/>
<polygon fill="midnightblue" stroke="midnightblue" points="724.73,-185.34 714.68,-188.69 724.63,-192.34 724.73,-185.34"/>
</g>
<!-- Node7&#45;&gt;Node6 -->
<g id="edge18" class="edge">
<title>Node7&#45;&gt;Node6</title>
<path fill="none" stroke="midnightblue" d="M651,-186.08C534.32,-179.88 180.76,-159.77 163,-143 127.98,-109.94 137.33,-43.46 142.06,-19.69"/>
<polygon fill="midnightblue" stroke="midnightblue" points="651.05,-189.59 661.22,-186.62 651.41,-182.6 651.05,-189.59"/>
</g>
<!-- Node8 -->
<g id="node8" class="node">
<title>Node8</title>
<g id="a_node8"><a xlink:href="errors_8h.html" target="_top" xlink:title="Public API for XMSS error handling.">
<polygon fill="white" stroke="black" points="960,-118 960,-137 1014,-137 1014,-118 960,-118"/>
<text text-anchor="middle" x="987" y="-125" font-family="Helvetica,sans-Serif" font-size="10.00">errors.h</text>
</a>
</g>
</g>
<!-- Node7&#45;&gt;Node8 -->
<g id="edge9" class="edge">
<title>Node7&#45;&gt;Node8</title>
<path fill="none" stroke="midnightblue" d="M724.77,-183.56C775.2,-177.02 868.39,-163.34 946,-143 952.28,-141.35 958.97,-139.18 965.08,-137.01"/>
<polygon fill="midnightblue" stroke="midnightblue" points="724.16,-180.11 714.68,-184.84 725.05,-187.05 724.16,-180.11"/>
</g>
<!-- Node9 -->
<g id="node9" class="node">
<title>Node9</title>
<g id="a_node9"><a xlink:href="generic__digest_8h.html" target="_top" xlink:title="Abstract typedefs for hash function overrides using the generic interface.">
<polygon fill="white" stroke="black" points="172.5,-118 172.5,-137 269.5,-137 269.5,-118 172.5,-118"/>
<text text-anchor="middle" x="221" y="-125" font-family="Helvetica,sans-Serif" font-size="10.00">generic_digest.h</text>
</a>
</g>
</g>
<!-- Node7&#45;&gt;Node9 -->
<g id="edge10" class="edge">
<title>Node7&#45;&gt;Node9</title>
<path fill="none" stroke="midnightblue" d="M650.64,-185.59C578.41,-180.56 414.77,-167.33 279,-143 270.11,-141.41 260.57,-139.22 251.84,-137.03"/>
<polygon fill="midnightblue" stroke="midnightblue" points="650.81,-189.11 661.02,-186.3 651.28,-182.13 650.81,-189.11"/>
</g>
<!-- Node10 -->
<g id="node10" class="node">
<title>Node10</title>
<g id="a_node10"><a xlink:href="override__sha256__generic_8h.html" target="_top" xlink:title="Prototypes for the SHA&#45;256 hash function override using the generic interface.">
<polygon fill="white" stroke="black" points="288,-118 288,-137 436,-137 436,-118 288,-118"/>
<text text-anchor="middle" x="362" y="-125" font-family="Helvetica,sans-Serif" font-size="10.00">override_sha256_generic.h</text>
</a>
</g>
</g>
<!-- Node7&#45;&gt;Node10 -->
<g id="edge12" class="edge">
<title>Node7&#45;&gt;Node10</title>
<path fill="none" stroke="midnightblue" d="M651.24,-181.29C591.66,-170.42 474.11,-148.96 408.7,-137.02"/>
<polygon fill="midnightblue" stroke="midnightblue" points="650.86,-184.78 661.32,-183.13 652.11,-177.89 650.86,-184.78"/>
</g>
<!-- Node11 -->
<g id="node11" class="node">
<title>Node11</title>
<g id="a_node11"><a xlink:href="override__sha256__internal_8h.html" target="_top" xlink:title="Prototype for the SHA&#45;256 hash function override using the internal interface.">
<polygon fill="white" stroke="black" points="454.5,-118 454.5,-137 603.5,-137 603.5,-118 454.5,-118"/>
<text text-anchor="middle" x="529" y="-125" font-family="Helvetica,sans-Serif" font-size="10.00">override_sha256_internal.h</text>
</a>
</g>
</g>
<!-- Node7&#45;&gt;Node11 -->
<g id="edge13" class="edge">
<title>Node7&#45;&gt;Node11</title>
<path fill="none" stroke="midnightblue" d="M655.75,-175.93C624.85,-164.37 578.99,-147.21 551.74,-137.01"/>
<polygon fill="midnightblue" stroke="midnightblue" points="654.63,-179.25 665.22,-179.48 657.08,-172.69 654.63,-179.25"/>
</g>
<!-- Node12 -->
<g id="node12" class="node">
<title>Node12</title>
<g id="a_node12"><a xlink:href="override__shake256__256__generic_8h.html" target="_top" xlink:title="Prototypes for the SHAKE256/256 hash function override using the generic interface.">
<polygon fill="white" stroke="black" points="622,-112.5 622,-142.5 754,-142.5 754,-112.5 622,-112.5"/>
<text text-anchor="start" x="630" y="-130.5" font-family="Helvetica,sans-Serif" font-size="10.00">override_shake256_256</text>
<text text-anchor="middle" x="688" y="-119.5" font-family="Helvetica,sans-Serif" font-size="10.00">_generic.h</text>
</a>
</g>
</g>
<!-- Node7&#45;&gt;Node12 -->
<g id="edge14" class="edge">
<title>Node7&#45;&gt;Node12</title>
<path fill="none" stroke="midnightblue" d="M688,-169.23C688,-160.59 688,-150.5 688,-142.52"/>
<polygon fill="midnightblue" stroke="midnightblue" points="684.5,-169.48 688,-179.48 691.5,-169.48 684.5,-169.48"/>
</g>
<!-- Node13 -->
<g id="node13" class="node">
<title>Node13</title>
<g id="a_node13"><a xlink:href="override__shake256__256__internal_8h.html" target="_top" xlink:title="Prototypes for the SHAKE256/256 hash function override using the internal interface.">
<polygon fill="white" stroke="black" points="772,-112.5 772,-142.5 904,-142.5 904,-112.5 772,-112.5"/>
<text text-anchor="start" x="780" y="-130.5" font-family="Helvetica,sans-Serif" font-size="10.00">override_shake256_256</text>
<text text-anchor="middle" x="838" y="-119.5" font-family="Helvetica,sans-Serif" font-size="10.00">_internal.h</text>
</a>
</g>
</g>
<!-- Node7&#45;&gt;Node13 -->
<g id="edge15" class="edge">
<title>Node7&#45;&gt;Node13</title>
<path fill="none" stroke="midnightblue" d="M718.96,-175.72C743.31,-166.06 777.24,-152.6 802.65,-142.52"/>
<polygon fill="midnightblue" stroke="midnightblue" points="717.5,-172.53 709.49,-179.48 720.08,-179.04 717.5,-172.53"/>
</g>
</g>
</svg>
